<svg width="51" height="51" viewBox="0 0 51 51" fill="none" xmlns="http://www.w3.org/2000/svg">
<g clip-path="url(#clip0_238_43525)">
<path d="M25.5002 6.54561C25.9139 6.54561 26.249 6.21046 26.249 5.79683V0.748777C26.249 0.335153 25.9139 0 25.5002 0C25.0866 0 24.7515 0.335153 24.7515 0.748777V5.79683C24.7515 6.21046 25.0866 6.54561 25.5002 6.54561Z" fill="white"/>
<path d="M11.5301 11.8938C11.8226 12.1861 12.2965 12.1861 12.5891 11.8938C12.8815 11.6013 12.8815 11.1272 12.5891 10.8348L9.0195 7.26514C8.72708 6.97292 8.25305 6.97272 7.96053 7.26514C7.66811 7.55766 7.66811 8.03169 7.96053 8.32411L11.5301 11.8938Z" fill="white"/>
<path d="M6.49224 24.0559H1.44409C1.03047 24.0559 0.695312 24.3911 0.695312 24.8047C0.695312 25.2183 1.03047 25.5535 1.44409 25.5535H6.49214C6.90577 25.5535 7.24092 25.2183 7.24092 24.8047C7.24092 24.3911 6.90577 24.0559 6.49224 24.0559Z" fill="white"/>
<path d="M11.5301 37.716L7.96053 41.2856C7.66811 41.5781 7.66811 42.0521 7.96053 42.3445C8.25305 42.6369 8.72698 42.6369 9.0195 42.3445L12.5891 38.775C12.8815 38.4824 12.8815 38.0084 12.5891 37.716C12.2966 37.4238 11.8226 37.4238 11.5301 37.716Z" fill="white"/>
<path d="M39.4702 37.7158C39.1777 37.4235 38.7036 37.4235 38.4112 37.7158C38.1188 38.0083 38.1188 38.4824 38.4112 38.7748L41.9808 42.3444C42.2733 42.6367 42.7472 42.6367 43.0398 42.3444C43.3322 42.0518 43.3322 41.5778 43.0398 41.2854L39.4702 37.7158Z" fill="white"/>
<path d="M49.5561 24.0559H44.5081C44.0944 24.0559 43.7593 24.3911 43.7593 24.8047C43.7593 25.2183 44.0944 25.5535 44.5081 25.5535H49.5561C49.9697 25.5535 50.3049 25.2183 50.3049 24.8047C50.3049 24.3911 49.9696 24.0559 49.5561 24.0559Z" fill="white"/>
<path d="M41.9808 7.26514L38.4112 10.8348C38.1188 11.1273 38.1188 11.6014 38.4112 11.8938C38.7037 12.1861 39.1777 12.1861 39.4702 11.8938L43.0398 8.32411C43.3322 8.03159 43.3322 7.55756 43.0398 7.26514C42.7472 6.97282 42.2732 6.97282 41.9808 7.26514Z" fill="white"/>
<path d="M40.2921 23.2912C40.2921 15.0175 33.6564 8.28638 25.5 8.28638C22.6429 8.28638 19.8698 9.11432 17.4807 10.6807C15.1563 12.2047 13.3034 14.3487 12.1222 16.8808C11.9474 17.2556 12.1095 17.7012 12.4842 17.876C12.8593 18.051 13.3046 17.8887 13.4794 17.514C15.6697 12.8182 20.3881 9.78393 25.5 9.78393C32.8307 9.78393 38.7945 15.8432 38.7945 23.2912C38.7945 26.8288 37.4577 30.1733 35.0305 32.7085C33.6315 34.1696 32.4406 35.5657 32.1342 37.5219H19.0617C18.6756 35.4911 17.2904 34.0664 16.0456 32.7872C13.5693 30.2423 12.2056 26.8698 12.2056 23.2912C12.2056 22.4075 12.2901 21.5238 12.4568 20.6643C12.5355 20.2583 12.2703 19.8654 11.8642 19.7866C11.4583 19.7084 11.0653 19.9732 10.9866 20.3792C10.8017 21.3324 10.708 22.3121 10.708 23.2912C10.708 27.2622 12.2224 31.0056 14.9723 33.8316C16.5517 35.4545 17.6696 36.75 17.6696 38.6488C17.6696 38.6554 17.6697 38.6622 17.6699 38.6688L17.7129 43.0629C17.7129 44.4884 18.4733 45.7397 19.6098 46.4326V47.256C19.6098 49.3205 21.2892 50.9999 23.3537 50.9999H27.9462C30.0106 50.9999 31.69 49.3205 31.69 47.256V46.4326C32.8265 45.7397 33.5869 44.4884 33.5869 43.0629C33.5869 43.0629 33.5816 38.1683 33.5717 38.1194C33.7137 36.3841 34.7656 35.1506 36.1122 33.7441C38.8075 30.9288 40.2921 27.2165 40.2921 23.2912ZM30.1924 47.256C30.1924 48.4946 29.1846 49.5024 27.9461 49.5024H23.3536C22.115 49.5024 21.1072 48.4946 21.1072 47.256V46.9674C21.2868 46.9926 21.4699 47.0064 21.6563 47.0064H29.6433C29.8297 47.0064 30.0128 46.9925 30.1924 46.9674V47.256ZM29.6433 45.5089H21.6563C20.3075 45.5089 19.2103 44.4117 19.2103 43.0629V43.013H26.7979C27.2115 43.013 27.5467 42.6778 27.5467 42.2642C27.5467 41.8506 27.2115 41.5154 26.7979 41.5154H19.2103V39.0195H32.0661L32.0893 41.5154H30.2922C29.8786 41.5154 29.5434 41.8506 29.5434 42.2642C29.5434 42.6778 29.8786 43.013 30.2922 43.013H32.0893V43.0629C32.0893 44.4117 30.992 45.5089 29.6433 45.5089Z" fill="white"/>
<path d="M30.368 23.3903C30.1144 23.7169 30.1737 24.1873 30.5002 24.4409C30.8267 24.6946 31.2971 24.6355 31.5508 24.3087L33.0332 22.3998C33.4257 21.8943 33.5979 21.2662 33.518 20.6311C33.438 19.9961 33.1156 19.4302 32.6101 19.0376C32.1046 18.6451 31.4761 18.472 30.8415 18.5529C30.2064 18.6328 29.6405 18.9552 29.2481 19.4608L24.4121 25.689L21.6366 22.6181C20.7505 21.6381 19.2323 21.5616 18.2524 22.4473C17.7776 22.8765 17.4984 23.4648 17.466 24.1041C17.4338 24.7432 17.6523 25.3567 18.0814 25.8317L22.7738 31.0232C23.7184 32.1188 25.5849 32.0516 26.4439 30.886L29.4076 27.0692C29.6612 26.7427 29.602 26.2722 29.2754 26.0186C28.9489 25.7651 28.4785 25.8241 28.2248 26.1508L25.2612 29.9676C24.9395 30.4047 24.2376 30.4301 23.8849 30.019L19.1926 24.8275C18.8603 24.4599 18.8891 23.8906 19.2568 23.5584C19.6242 23.2265 20.1936 23.2549 20.5258 23.6226L23.9003 27.3561C24.1944 27.6971 24.7791 27.6775 25.0472 27.3131L30.4311 20.3794C30.7194 19.9918 31.317 19.9166 31.6919 20.2207C32.0795 20.509 32.1546 21.1062 31.8505 21.4816L30.368 23.3903Z" fill="white"/>
</g>
<defs>
<clipPath id="clip0_238_43525">
<rect width="51" height="51" fill="white"/>
</clipPath>
</defs>
</svg>
