<svg width="50" height="50" viewBox="0 0 50 50" fill="none" xmlns="http://www.w3.org/2000/svg">
<path d="M26.6554 46.8006H26.6487C23.1822 46.7657 19.7696 45.9383 16.672 44.3818C13.5744 42.8253 10.8739 40.5809 8.77705 37.8203C6.68017 35.0597 5.24251 31.856 4.57405 28.4544C3.90558 25.0528 4.02402 21.5434 4.92031 18.1946C4.94148 18.107 4.97993 18.0246 5.03341 17.9522C5.08688 17.8797 5.1543 17.8187 5.2317 17.7727C5.3091 17.7266 5.39492 17.6965 5.48411 17.6842C5.5733 17.6718 5.66407 17.6773 5.75108 17.7005C5.8381 17.7237 5.91959 17.7641 5.99079 17.8192C6.06198 17.8744 6.12143 17.9432 6.16565 18.0216C6.20987 18.1001 6.23796 18.1866 6.24828 18.276C6.25859 18.3655 6.25092 18.4561 6.22572 18.5425C5.38249 21.6923 5.27089 24.9932 5.89945 28.1926C6.52802 31.3921 7.8801 34.4055 9.85225 37.0021C11.8244 39.5987 14.3644 41.7098 17.2778 43.174C20.1913 44.6381 23.401 45.4164 26.6615 45.4493C26.8407 45.4501 27.0123 45.5221 27.1384 45.6493C27.2646 45.7766 27.335 45.9488 27.3342 46.128C27.3334 46.3072 27.2614 46.4788 27.1341 46.6049C27.0068 46.731 26.8346 46.8015 26.6554 46.8006Z" fill="white"/>
<path d="M8.29144 12.8758C8.17019 12.8757 8.05119 12.843 7.94693 12.7811C7.84267 12.7192 7.75699 12.6303 7.69888 12.5239C7.64076 12.4175 7.61235 12.2974 7.61663 12.1762C7.62091 12.0551 7.65772 11.9373 7.72319 11.8352C8.6101 10.452 9.6438 9.1687 10.8063 8.00751C12.9165 5.89725 15.4216 4.22329 18.1787 3.08121C20.9359 1.93914 23.8909 1.35132 26.8752 1.35132C29.8595 1.35132 32.8146 1.93914 35.5717 3.08121C38.3288 4.22329 40.834 5.89725 42.9441 8.00751C43.0672 8.13495 43.1353 8.30563 43.1338 8.48279C43.1322 8.65995 43.0612 8.82941 42.9359 8.95469C42.8106 9.07996 42.6412 9.15102 42.464 9.15256C42.2868 9.1541 42.1162 9.086 41.9887 8.96292C40.004 6.97817 37.6478 5.40379 35.0546 4.32965C32.4614 3.25551 29.6821 2.70266 26.8752 2.70266C24.0684 2.70266 21.289 3.25551 18.6958 4.32965C16.1027 5.40379 13.7464 6.97817 11.7617 8.96292C10.6682 10.0557 9.69574 11.2631 8.86103 12.5643C8.79988 12.6598 8.71564 12.7385 8.6161 12.7929C8.51655 12.8473 8.4049 12.8758 8.29144 12.8758Z" fill="white"/>
<path d="M48.9045 24.1555C48.7283 24.1556 48.559 24.0868 48.4328 23.9639C48.3066 23.8409 48.2334 23.6735 48.2288 23.4974C48.1389 19.93 47.1553 16.4422 45.368 13.3535C45.321 13.2767 45.2898 13.1914 45.2763 13.1024C45.2627 13.0134 45.2671 12.9226 45.2891 12.8354C45.3111 12.7481 45.3503 12.6661 45.4044 12.5942C45.4586 12.5223 45.5265 12.462 45.6043 12.4167C45.6821 12.3714 45.7681 12.3421 45.8573 12.3306C45.9466 12.319 46.0373 12.3254 46.124 12.3493C46.2108 12.3733 46.2919 12.4143 46.3625 12.47C46.4332 12.5257 46.492 12.595 46.5356 12.6738C48.4369 15.9586 49.4835 19.6681 49.5795 23.4623C49.5842 23.6414 49.5176 23.815 49.3943 23.945C49.271 24.075 49.1012 24.1507 48.9221 24.1555H48.9045Z" fill="white"/>
<path d="M45.0675 37.2094C44.9443 37.2094 44.8234 37.1756 44.7179 37.1118C44.6124 37.048 44.5265 36.9565 44.4693 36.8473C44.412 36.7381 44.3858 36.6154 44.3934 36.4923C44.4009 36.3693 44.442 36.2507 44.5121 36.1493C44.8662 35.6371 45.2047 35.0905 45.5175 34.5243C45.5599 34.4456 45.6175 34.3762 45.6869 34.3199C45.7563 34.2637 45.8362 34.2217 45.922 34.1966C46.0077 34.1714 46.0976 34.1635 46.1864 34.1733C46.2752 34.1831 46.3612 34.2104 46.4394 34.2536C46.5176 34.2969 46.5864 34.3552 46.6419 34.4252C46.6974 34.4952 46.7384 34.5756 46.7627 34.6616C46.7869 34.7476 46.7938 34.8375 46.7831 34.9262C46.7723 35.0149 46.7441 35.1006 46.7 35.1783C46.3655 35.7864 46.0034 36.3689 45.6243 36.9175C45.5621 37.0077 45.4789 37.0813 45.3819 37.1322C45.2849 37.183 45.177 37.2095 45.0675 37.2094Z" fill="white"/>
<path d="M32.5877 46.054C32.4189 46.0559 32.2555 45.9946 32.1297 45.8821C32.0038 45.7696 31.9247 45.6141 31.9077 45.4462C31.8908 45.2782 31.9373 45.11 32.0381 44.9747C32.139 44.8393 32.2868 44.7466 32.4526 44.7148C35.7947 43.8102 38.8664 42.1057 41.4026 39.7486C41.4671 39.686 41.5435 39.637 41.6273 39.6043C41.711 39.5716 41.8004 39.556 41.8903 39.5583C41.9801 39.5607 42.0686 39.5809 42.1506 39.6178C42.2325 39.6548 42.3063 39.7077 42.3675 39.7736C42.4287 39.8394 42.4762 39.9167 42.5072 40.0011C42.5381 40.0855 42.5519 40.1752 42.5477 40.265C42.5436 40.3548 42.5216 40.4429 42.4829 40.5241C42.4443 40.6052 42.3899 40.6779 42.3229 40.7378C39.6145 43.2555 36.3315 45.0727 32.76 46.031C32.7038 46.0462 32.6459 46.0539 32.5877 46.054Z" fill="white"/>
<path d="M47.9669 31.1763C47.8982 31.1764 47.8299 31.1661 47.7642 31.1459C47.6794 31.1197 47.6006 31.077 47.5323 31.0204C47.464 30.9637 47.4076 30.8941 47.3662 30.8156C47.3247 30.7371 47.2992 30.6513 47.291 30.5629C47.2828 30.4745 47.292 30.3854 47.3183 30.3006C47.5127 29.6685 47.6748 29.0269 47.8041 28.3783C47.8399 28.2027 47.9441 28.0485 48.0936 27.9497C48.2431 27.8508 48.4258 27.8155 48.6014 27.8513C48.777 27.8871 48.9312 27.9913 49.03 28.1408C49.1289 28.2903 49.1643 28.473 49.1284 28.6486C48.9784 29.3918 48.8095 30.0608 48.6122 30.7013C48.5694 30.839 48.4837 30.9593 48.3676 31.0448C48.2515 31.1302 48.1111 31.1763 47.9669 31.1763Z" fill="white"/>
<path d="M42.4662 9.16071H37.2689C37.0897 9.16071 36.9179 9.08952 36.7912 8.96281C36.6644 8.8361 36.5933 8.66423 36.5933 8.48503C36.5933 8.30583 36.6644 8.13397 36.7912 8.00726C36.9179 7.88055 37.0897 7.80936 37.2689 7.80936H41.7906V3.28774C41.7906 3.10854 41.8617 2.93668 41.9885 2.80996C42.1152 2.68325 42.287 2.61206 42.4662 2.61206C42.6454 2.61206 42.8173 2.68325 42.944 2.80996C43.0707 2.93668 43.1419 3.10854 43.1419 3.28774V8.48503C43.1419 8.66423 43.0707 8.8361 42.944 8.96281C42.8173 9.08952 42.6454 9.16071 42.4662 9.16071Z" fill="white"/>
<path d="M8.1756 23.546C8.05689 23.5461 7.94023 23.5149 7.83739 23.4556C7.73455 23.3963 7.64915 23.3109 7.58979 23.2081L5.32898 19.2926L1.41344 21.5541C1.25834 21.6423 1.07464 21.6655 0.902453 21.6188C0.730262 21.572 0.583552 21.4591 0.494338 21.3045C0.405124 21.15 0.380649 20.9665 0.426255 20.794C0.47186 20.6215 0.583843 20.474 0.737767 20.3838L5.23844 17.7851C5.31531 17.7407 5.4002 17.7118 5.48824 17.7002C5.57628 17.6885 5.66575 17.6944 5.75153 17.7173C5.83732 17.7403 5.91773 17.7799 5.98818 17.834C6.05863 17.8881 6.11772 17.9555 6.16209 18.0324L8.76006 22.5331C8.81934 22.6358 8.85056 22.7522 8.85059 22.8708C8.85062 22.9893 8.81946 23.1058 8.76024 23.2085C8.70102 23.3112 8.61582 23.3965 8.5132 23.4559C8.41058 23.5152 8.29415 23.5465 8.1756 23.5466V23.546Z" fill="white"/>
<path d="M37.0819 48.6487C36.9633 48.6487 36.8468 48.6175 36.7441 48.5582L32.2434 45.9602C32.1664 45.9159 32.0989 45.8568 32.0448 45.7864C31.9906 45.716 31.9509 45.6356 31.9279 45.5498C31.9049 45.464 31.899 45.3745 31.9106 45.2864C31.9221 45.1984 31.951 45.1135 31.9954 45.0365L34.5948 40.5359C34.6844 40.3806 34.832 40.2673 35.0051 40.2208C35.1783 40.1744 35.3628 40.1986 35.5181 40.2882C35.6733 40.3778 35.7867 40.5255 35.8331 40.6986C35.8795 40.8718 35.8553 41.0563 35.7657 41.2115L33.5049 45.1271L37.4204 47.3879C37.5492 47.4623 37.6499 47.5771 37.7068 47.7145C37.7637 47.8519 37.7737 48.0042 37.7352 48.1479C37.6967 48.2916 37.6119 48.4185 37.4939 48.5091C37.3759 48.5996 37.2313 48.6487 37.0826 48.6487H37.0819Z" fill="white"/>
<path d="M28.1755 39.1891H25.2025C24.9609 39.1888 24.7261 39.1094 24.5339 38.963C24.3417 38.8165 24.2028 38.6112 24.1384 38.3783L23.5978 36.383C22.3724 36.0795 21.1993 35.5944 20.1174 34.9438L18.3235 35.9702C18.1133 36.0903 17.8694 36.138 17.6295 36.1057C17.3895 36.0735 17.1668 35.9632 16.9958 35.7918L14.885 33.6851C14.714 33.5138 14.604 33.2911 14.5719 33.0512C14.5398 32.8113 14.5874 32.5676 14.7073 32.3573L15.7336 30.5634C15.0831 29.4815 14.598 28.3084 14.2944 27.083L12.2998 26.5425C12.0656 26.4783 11.8589 26.3388 11.7119 26.1455C11.5649 25.9522 11.4856 25.7158 11.4863 25.4729V22.4999C11.4866 22.2583 11.566 22.0234 11.7125 21.8312C11.8589 21.639 12.0643 21.5001 12.2971 21.4357L14.2924 20.8952C14.5959 19.6698 15.081 18.4967 15.7316 17.4148L14.7053 15.6209C14.5852 15.4106 14.5377 15.1668 14.5699 14.9268C14.6021 14.6869 14.7124 14.4642 14.8836 14.2932L16.9884 12.1878C17.1594 12.0164 17.3821 11.9061 17.6221 11.874C17.8621 11.8419 18.106 11.8897 18.3161 12.01L20.11 13.0364C21.1919 12.3858 22.365 11.9007 23.5904 11.5972L24.1309 9.60262C24.1942 9.367 24.3335 9.15891 24.5274 9.01079C24.7212 8.86266 24.9586 8.78282 25.2025 8.7837H28.1755C28.4171 8.78397 28.652 8.8634 28.8442 9.00983C29.0364 9.15626 29.1753 9.36163 29.2397 9.59451L29.7803 11.5898C31.0057 11.8933 32.1788 12.3784 33.2607 13.029L35.0546 12.0026C35.2648 11.8827 35.5087 11.8352 35.7486 11.8674C35.9885 11.8997 36.2111 12.0098 36.3823 12.181L38.4877 14.2857C38.6586 14.457 38.7686 14.6797 38.8007 14.9196C38.8328 15.1594 38.7853 15.4032 38.6654 15.6134L37.639 17.4073C38.2896 18.4892 38.7747 19.6624 39.0782 20.8878L41.0728 21.4283C41.3084 21.4915 41.5165 21.6309 41.6646 21.8247C41.8128 22.0186 41.8926 22.256 41.8917 22.4999V25.4729C41.8915 25.7145 41.812 25.9494 41.6656 26.1416C41.5192 26.3338 41.3138 26.4727 41.0809 26.5371L39.0857 27.0776C38.7821 28.303 38.297 29.4761 37.6465 30.558L38.6728 32.3519C38.7929 32.5622 38.8404 32.806 38.8082 33.046C38.776 33.2859 38.6657 33.5086 38.4944 33.6796L36.3877 35.7905C36.2165 35.9615 35.9938 36.0716 35.7539 36.1037C35.514 36.1358 35.2702 36.0882 35.06 35.9682L33.2661 34.9418C32.1842 35.5924 31.0111 36.0775 29.7857 36.381L29.2451 38.3756C29.181 38.6099 29.0415 38.8165 28.8481 38.9635C28.6548 39.1106 28.4184 39.1899 28.1755 39.1891ZM25.387 37.8378H27.9857L28.585 35.6357C28.6175 35.5159 28.6825 35.4073 28.7727 35.322C28.863 35.2366 28.975 35.1778 29.0965 35.1519C30.4425 34.865 31.7248 34.3347 32.8803 33.5871C32.9843 33.5201 33.1047 33.483 33.2284 33.4798C33.3521 33.4766 33.4742 33.5074 33.5816 33.5688L35.5607 34.7006L37.3978 32.8634L36.2661 30.8844C36.2046 30.777 36.1738 30.6548 36.177 30.5311C36.1802 30.4075 36.2173 30.2871 36.2843 30.183C37.032 29.0276 37.5623 27.7453 37.8492 26.3992C37.875 26.2778 37.9338 26.1657 38.0192 26.0755C38.1045 25.9853 38.2131 25.9203 38.333 25.8878L40.5404 25.2857V22.6871L38.3384 22.0878C38.2185 22.0552 38.1099 21.9902 38.0246 21.9C37.9392 21.8098 37.8804 21.6978 37.8546 21.5763C37.5677 20.2302 37.0374 18.9479 36.2897 17.7925C36.2228 17.6885 36.1856 17.568 36.1824 17.4444C36.1792 17.3207 36.21 17.1985 36.2715 17.0911L37.4032 15.1121L35.5661 13.2749L33.587 14.4067C33.4796 14.4681 33.3575 14.4989 33.2338 14.4957C33.1101 14.4925 32.9897 14.4554 32.8857 14.3884C31.7302 13.6408 30.4479 13.1105 29.1019 12.8236C28.9804 12.7977 28.8684 12.7389 28.7781 12.6536C28.6879 12.5682 28.6229 12.4596 28.5904 12.3398L27.9884 10.1351H25.3897L24.7904 12.3371C24.7578 12.4569 24.6929 12.5655 24.6026 12.6509C24.5124 12.7362 24.4004 12.795 24.2789 12.8209C22.9329 13.1078 21.6506 13.6381 20.4951 14.3857C20.3911 14.4527 20.2707 14.4898 20.147 14.493C20.0233 14.4962 19.9011 14.4654 19.7938 14.404L17.8147 13.2722L15.9775 15.1094L17.1093 17.0884C17.1708 17.1958 17.2016 17.318 17.1983 17.4417C17.1951 17.5653 17.158 17.6858 17.0911 17.7898C16.3434 18.9452 15.8131 20.2275 15.5262 21.5736C15.5004 21.6951 15.4415 21.8071 15.3562 21.8973C15.2708 21.9875 15.1623 22.0525 15.0424 22.0851L12.8377 22.6871V25.2857L15.0397 25.8851C15.1596 25.9176 15.2681 25.9826 15.3535 26.0728C15.4388 26.163 15.4977 26.2751 15.5235 26.3965C15.8104 27.7426 16.3407 29.0249 17.0884 30.1803C17.1553 30.2844 17.1924 30.4048 17.1956 30.5284C17.1989 30.6521 17.1681 30.7743 17.1066 30.8817L15.9748 32.8607L17.812 34.6979L19.7911 33.5661C19.8984 33.5047 20.0206 33.4739 20.1443 33.4771C20.268 33.4803 20.3884 33.5174 20.4924 33.5844C21.6479 34.332 22.9302 34.8623 24.2762 35.1492C24.3977 35.1751 24.5097 35.2339 24.5999 35.3193C24.6902 35.4046 24.7551 35.5132 24.7877 35.633L25.387 37.8378Z" fill="white"/>
<path d="M26.6892 33.0474C24.8972 33.0474 23.1454 32.516 21.6553 31.5204C20.1653 30.5248 19.0039 29.1097 18.3181 27.454C17.6323 25.7984 17.4529 23.9765 17.8025 22.2189C18.1521 20.4613 19.0151 18.8468 20.2823 17.5796C21.5494 16.3125 23.1639 15.4495 24.9216 15.0999C26.6792 14.7503 28.501 14.9297 30.1567 15.6155C31.8123 16.3013 33.2274 17.4626 34.223 18.9527C35.2186 20.4427 35.75 22.1945 35.75 23.9866C35.7475 26.3889 34.7921 28.6921 33.0934 30.3908C31.3947 32.0895 29.0915 33.0449 26.6892 33.0474ZM26.6892 16.2771C25.1644 16.2771 23.6739 16.7293 22.4061 17.5764C21.1383 18.4235 20.1501 19.6276 19.5666 21.0363C18.9831 22.445 18.8304 23.9951 19.1279 25.4906C19.4254 26.9861 20.1596 28.3598 21.2378 29.438C22.316 30.5162 23.6897 31.2504 25.1852 31.5479C26.6807 31.8454 28.2308 31.6927 29.6395 31.1092C31.0482 30.5257 32.2523 29.5376 33.0994 28.2697C33.9465 27.0019 34.3987 25.5114 34.3987 23.9866C34.3965 21.9426 33.5836 19.9829 32.1383 18.5376C30.6929 17.0922 28.7332 16.2793 26.6892 16.2771Z" fill="white"/>
</svg>
