<svg width="32" height="32" viewBox="0 0 32 32" fill="none" xmlns="http://www.w3.org/2000/svg">
<path d="M12.7868 26.6568L5.34204 19.2101L15.5657 8.09924C18.2026 5.23269 21.6526 3.2348 25.4499 2.38194L30.9999 1L29.6184 6.54356C28.7578 10.3419 26.7684 13.7928 23.9026 16.4304L12.7868 26.6568Z" stroke="white" stroke-width="1.5" stroke-miterlimit="10" stroke-linecap="round" stroke-linejoin="round"/>
<path d="M6.58281 20.4543L4.72388 22.3137L9.6866 27.2778L11.5455 25.4183L6.58281 20.4543Z" stroke="white" stroke-width="1.5" stroke-miterlimit="10" stroke-linecap="round" stroke-linejoin="round"/>
<path d="M5.34211 19.155L1 17.2914L7.82105 10.4685H12.8421" stroke="white" stroke-width="1.5" stroke-miterlimit="10" stroke-linecap="round" stroke-linejoin="round"/>
<path d="M21.5263 19.1548V24.1772L14.7052 31L12.842 26.6568" stroke="white" stroke-width="1.5" stroke-miterlimit="10" stroke-linecap="round" stroke-linejoin="round"/>
<path d="M20.7132 15.1827C19.6316 16.2646 17.8869 16.2646 16.8053 15.1827C15.7237 14.1009 15.7237 12.3557 16.8053 11.2738C17.8869 10.1919 19.6316 10.1919 20.7132 11.2738C21.7948 12.3557 21.7948 14.1088 20.7132 15.1827Z" stroke="white" stroke-width="1.5" stroke-miterlimit="10" stroke-linecap="round" stroke-linejoin="round"/>
<path d="M7.82104 16.7227L15.2737 24.1772" stroke="white" stroke-width="1.5" stroke-miterlimit="10" stroke-linecap="round" stroke-linejoin="round"/>
<path d="M24.2104 2.81616L29.1762 7.78326" stroke="white" stroke-width="1.5" stroke-miterlimit="10" stroke-linecap="round" stroke-linejoin="round"/>
</svg>
