<svg width="40" height="35" viewBox="0 0 40 35" fill="none" xmlns="http://www.w3.org/2000/svg">
<path d="M8.04262 34.9985C7.36165 29.1111 8.79962 24.0303 8.79962 24.0303H8.32691C6.79969 28.9392 7.14018 34.03 7.22612 34.9985H8.04262Z" fill="#7A1CD0"/>
<path d="M7.43749 31.3094V30.4267C7.43749 30.4267 4.37644 28.9161 3.01121 26.774L2.56494 26.8996C2.56494 26.8963 3.93018 29.0417 7.43749 31.3094Z" fill="#7A1CD0"/>
<path d="M7.34521 32.6184V31.7292C7.34521 31.7292 11.0509 29.6565 12.7037 27.6368L12.9615 27.9938C12.9615 27.9938 11.2558 30.3342 7.34521 32.6184Z" fill="#7A1CD0"/>
<path d="M5.08422 27.1343C5.08422 27.1343 4.80654 28.0963 5.00158 29.1111L5.54371 29.5971C5.54371 29.5971 5.12719 28.1062 5.43131 27.2434L5.08422 27.1343Z" fill="#7A1CD0"/>
<path d="M12.8588 29.478C12.3531 29.5871 11.6787 29.4417 11.1862 29.2929C11.1862 29.2962 11.1829 29.2962 11.1829 29.2962C11.1366 29.435 11.0672 29.564 10.9746 29.6698C11.9498 29.9871 12.9283 29.835 12.9283 29.835L12.8588 29.478Z" fill="#7A1CD0"/>
<path d="M11.8672 31.5044C11.8672 31.5044 11.1664 30.7904 10.188 30.4598L9.49707 30.6945C9.49707 30.6945 10.9978 31.0615 11.5995 31.7524L11.8672 31.5044Z" fill="#7A1CD0"/>
<path d="M5.33165 29.5012C4.64408 30.2086 4.34326 31.0879 4.34326 31.0879L4.69366 31.197C4.84572 30.6548 5.35479 30.073 5.72503 29.7061C5.56636 29.6697 5.43744 29.597 5.33165 29.5012Z" fill="#7A1CD0"/>
<path d="M2.71045 29.8615C2.71045 29.8615 4.23436 29.8219 5.17647 29.3954L4.86905 28.969C4.86905 28.969 3.64595 29.5938 2.73689 29.5012L2.71045 29.8615Z" fill="#7A1CD0"/>
<path d="M10.3001 28.093C10.3001 28.093 9.6555 29.4747 9.61914 30.5094L10.1381 30.4268C10.1381 30.4268 10.1249 29.0549 10.6141 28.2814L10.3001 28.093Z" fill="#7A1CD0"/>
<path d="M7.74482 23.1081C7.74482 23.1081 7.8506 23.2436 7.88035 23.3824C7.88696 23.4188 7.88366 23.5213 7.87043 23.6568L9.25551 23.9708C9.29517 23.8386 9.33154 23.746 9.3679 23.7295C9.50012 23.6667 11.0802 23.1014 11.0207 21.7031C10.9612 20.3049 10.1249 19.8553 9.7216 19.7065C9.31831 19.5611 7.76796 19.5346 7.19938 20.8866C6.73659 21.9874 7.60598 22.8337 7.74482 23.1081Z" fill="#FD7529" fill-opacity="0.97"/>
<path d="M8.24408 23.8287C8.24408 23.8287 8.48539 22.7609 8.44242 22.589C8.39945 22.4204 8.15813 21.8023 8.12508 21.6767C8.08871 21.5511 8.24408 21.4486 8.30358 21.637C8.35317 21.799 8.59448 22.3643 8.62754 22.5824C8.66059 22.8006 8.47217 23.9377 8.47217 23.9377L8.24408 23.8287Z" fill="#FD7529" fill-opacity="0.97"/>
<path d="M8.83582 23.9609C8.83582 23.9609 9.07713 22.8932 9.18952 22.7576C9.30191 22.6221 9.78123 22.1692 9.87049 22.0701C9.95644 21.9709 9.86057 21.8122 9.72834 21.9577C9.61265 22.08 9.15316 22.4899 9.03085 22.6717C8.90854 22.8535 8.58789 23.9609 8.58789 23.9609H8.83582Z" fill="#FD7529" fill-opacity="0.97"/>
<path d="M9.81723 22.0238C9.65855 22.0601 9.41063 22.0106 9.23873 21.9147C9.23543 21.9147 9.23543 21.918 9.23212 21.918C9.05692 21.994 8.85858 21.9048 8.72966 21.7593C8.52141 21.7924 8.25695 21.7395 8.21729 21.7329L8.24042 21.6304C8.35612 21.6535 8.52471 21.6734 8.66355 21.6635C8.58421 21.5246 8.58752 21.3957 8.68008 21.3263C8.79247 21.2403 8.90486 21.2701 8.96436 21.3428C9.03709 21.4288 9.0437 21.5742 8.93792 21.6767C8.91478 21.6998 8.88503 21.7163 8.84867 21.7296C8.93131 21.8089 9.04039 21.8585 9.13956 21.842C9.11312 21.8155 9.08998 21.7891 9.07676 21.7593C9.05362 21.713 9.03378 21.6205 9.13626 21.5312C9.20568 21.4717 9.28171 21.4519 9.34782 21.4816C9.41063 21.5114 9.44699 21.5775 9.44369 21.6568C9.44038 21.7296 9.40402 21.799 9.34121 21.8519C9.48335 21.918 9.67178 21.9544 9.8007 21.9279L9.81723 22.0238ZM9.24535 21.5775C9.23212 21.5841 9.21559 21.594 9.20237 21.6073C9.14948 21.6535 9.15609 21.6866 9.16932 21.713C9.18254 21.7428 9.21229 21.7725 9.24865 21.799C9.30815 21.7593 9.34121 21.7097 9.34452 21.6568C9.34452 21.6205 9.32799 21.5874 9.30485 21.5742C9.28501 21.5676 9.26518 21.5676 9.24535 21.5775ZM8.77594 21.6436C8.8123 21.6337 8.84536 21.6205 8.86519 21.6007C8.928 21.5411 8.92139 21.4552 8.88172 21.4089C8.84536 21.3659 8.79578 21.3659 8.73958 21.4089C8.68669 21.4486 8.71313 21.5445 8.7528 21.6139C8.76272 21.6238 8.76933 21.6337 8.77594 21.6436Z" fill="#FD7529" fill-opacity="0.97"/>
<path d="M8.59467 23.66C8.20791 23.5741 7.90048 23.3956 7.85089 23.3526C7.8542 23.3625 7.85751 23.3691 7.85751 23.379C7.88395 23.498 7.74842 24.3972 7.81123 24.7707C7.82114 24.8368 7.83767 24.8864 7.86412 24.9129C7.93354 24.9823 8.0856 25.0748 8.2641 25.1079C8.4393 25.1575 8.61781 25.1377 8.71037 25.1046C8.74342 25.0914 8.77979 25.055 8.81945 24.9988C9.03763 24.6881 9.30208 23.8154 9.37811 23.7228C9.38472 23.7162 9.39133 23.7096 9.39464 23.703C9.33514 23.7195 8.98143 23.746 8.59467 23.66Z" fill="#1E1EA4"/>
<path d="M8.50173 24.0601C8.72651 24.1063 8.97774 24.1361 9.21245 24.1163C9.25211 24.0138 9.28517 23.9212 9.31492 23.8518C8.80585 23.9245 8.28355 23.8055 7.85712 23.5212C7.85382 23.5973 7.8439 23.6931 7.83398 23.8022C8.04224 23.9245 8.28025 24.0072 8.50173 24.0601Z" fill="#110239"/>
<path d="M8.39997 24.5129C8.60162 24.5559 8.82309 24.5823 9.03466 24.5724C9.07102 24.4864 9.10408 24.4005 9.13713 24.3145C8.67765 24.3641 8.21155 24.2583 7.81487 24.017C7.80826 24.1096 7.80165 24.2021 7.79834 24.2947C7.99007 24.3939 8.20163 24.4633 8.39997 24.5129Z" fill="#110239"/>
<path d="M7.79443 24.5129C7.79443 24.612 7.79774 24.7013 7.81096 24.7707C7.81427 24.7806 7.81427 24.7906 7.81757 24.8038C7.97294 24.8732 8.14153 24.9261 8.29689 24.9658C8.45557 24.9988 8.62746 25.0219 8.79936 25.0253C8.80597 25.0153 8.81258 25.0087 8.81919 24.9988C8.85886 24.9393 8.90183 24.8633 8.9448 24.774C8.54482 24.8005 8.14483 24.7079 7.79443 24.5129Z" fill="#110239"/>
<path d="M3.68863 26.2055C3.68863 26.9492 3.08369 27.5542 2.33992 27.5542C1.59615 27.5542 0.991211 26.9492 0.991211 26.2055C0.991211 25.4617 1.59615 24.8568 2.33992 24.8568C3.087 24.8601 3.68863 25.4617 3.68863 26.2055Z" fill="#FD7529" fill-opacity="0.97"/>
<path d="M3.44083 26.2055C3.44083 26.8137 2.94828 27.3062 2.34004 27.3062C1.7318 27.3062 1.23926 26.8137 1.23926 26.2055C1.23926 25.5972 1.7318 25.1047 2.34004 25.1047C2.94828 25.1047 3.44083 25.5972 3.44083 26.2055Z" fill="#FD7529" fill-opacity="0.97"/>
<path d="M2.21113 25.6401C2.43261 25.5707 2.66401 25.5873 2.74996 25.7988L2.39294 25.941C2.35989 25.8616 2.26733 25.8782 2.21774 25.898C2.18469 25.9112 2.07891 25.9542 2.10535 26.0203C2.16485 26.1657 2.75987 25.7525 2.92516 26.1657C3.02433 26.4137 2.86565 26.5856 2.63426 26.698L2.75657 26.9558L2.53839 27.0417L2.44584 26.7707C2.21444 26.8368 1.96651 26.8137 1.87726 26.5922L2.23427 26.45L2.23758 26.4566C2.27725 26.5558 2.39625 26.5294 2.45245 26.5062C2.50534 26.4831 2.61112 26.4368 2.58137 26.3674C2.52187 26.2153 1.92024 26.6153 1.75826 26.2153C1.6657 25.9839 1.80784 25.8253 2.02271 25.7162L1.90371 25.455L2.12188 25.3691L2.21113 25.6401Z" fill="#FD7529" fill-opacity="0.97"/>
<path d="M6.68407 27.3624C6.35681 28.0301 5.55023 28.3078 4.88249 27.9805C4.21474 27.6533 3.93707 26.8467 4.26433 26.1789C4.59159 25.5112 5.39817 25.2335 6.06591 25.5608C6.73366 25.888 7.01133 26.6946 6.68407 27.3624Z" fill="#FD7529" fill-opacity="0.97"/>
<path d="M6.46256 27.2567C6.1948 27.8021 5.53698 28.0302 4.99154 27.7624C4.44611 27.4947 4.21802 26.8368 4.48578 26.2914C4.75353 25.746 5.41136 25.5179 5.95679 25.7856C6.50223 26.0501 6.73032 26.7079 6.46256 27.2567Z" fill="#FD7529" fill-opacity="0.97"/>
<path d="M5.60641 26.2055C5.8345 26.2418 6.03614 26.3542 6.01962 26.5856L5.63616 26.5559C5.63946 26.4699 5.55352 26.4435 5.49732 26.4402C5.46096 26.4369 5.34857 26.4303 5.34195 26.4997C5.32873 26.6584 6.04937 26.546 6.01631 26.9889C5.99648 27.2567 5.78161 27.3393 5.52377 27.3393L5.52046 27.6236L5.28576 27.6071L5.32212 27.3228C5.08742 27.2798 4.87255 27.1509 4.88908 26.9129L5.27254 26.9427V26.9493C5.26592 27.055 5.38493 27.0848 5.44443 27.0881C5.50393 27.0914 5.61632 27.098 5.62294 27.0187C5.63616 26.8567 4.91883 26.9526 4.94858 26.5228C4.96841 26.2749 5.16675 26.1923 5.40476 26.189L5.41137 25.9014L5.64608 25.9179L5.60641 26.2055Z" fill="#FD7529" fill-opacity="0.97"/>
<path d="M11.9034 27.4186C11.748 28.1458 11.0307 28.6086 10.3035 28.4533C9.57623 28.2979 9.11343 27.5806 9.2688 26.8533C9.42417 26.1261 10.1415 25.6633 10.8687 25.8187C11.5993 25.974 12.0621 26.6914 11.9034 27.4186Z" fill="#FD7529" fill-opacity="0.97"/>
<path d="M11.6622 27.3657C11.5333 27.9608 10.9482 28.3376 10.3565 28.2087C9.76148 28.0798 9.38464 27.4947 9.51356 26.903C9.64248 26.3079 10.2276 25.9311 10.8193 26.06C11.411 26.1856 11.7912 26.774 11.6622 27.3657Z" fill="#FD7529" fill-opacity="0.97"/>
<path d="M10.5779 26.5525C10.8093 26.5327 11.0308 26.5955 11.0704 26.8236L10.6903 26.8864C10.6738 26.8004 10.5812 26.7971 10.5283 26.8071C10.492 26.8137 10.3796 26.8335 10.3928 26.9029C10.4192 27.0583 11.0903 26.7773 11.163 27.217C11.2093 27.4814 11.0176 27.6136 10.7663 27.6765L10.8291 27.9541L10.5977 27.9938L10.5647 27.7095C10.3267 27.726 10.0887 27.6533 10.0457 27.4153L10.4258 27.3525V27.3591C10.4457 27.4616 10.5647 27.4649 10.6242 27.455C10.6804 27.4451 10.7928 27.4219 10.7795 27.3459C10.7531 27.1839 10.0787 27.4517 10.006 27.0252C9.96305 26.7806 10.1383 26.6517 10.3696 26.5922L10.3068 26.3112L10.5382 26.2715L10.5779 26.5525Z" fill="#FD7529" fill-opacity="0.97"/>
<path d="M13.8142 28.4764C13.0704 28.5326 12.4258 27.9739 12.3696 27.2301C12.3134 26.4864 12.8721 25.8418 13.6125 25.7856C14.3563 25.7294 15.0009 26.288 15.0571 27.0285C15.1133 27.7756 14.5547 28.4202 13.8142 28.4764Z" fill="#FD7529" fill-opacity="0.97"/>
<path d="M13.7943 28.2285C13.1894 28.2747 12.6605 27.8186 12.6175 27.2136C12.5712 26.6087 13.0274 26.0798 13.6323 26.0368C14.2373 25.9905 14.7662 26.4467 14.8091 27.0516C14.8554 27.6566 14.4025 28.1822 13.7943 28.2285Z" fill="#FD7529" fill-opacity="0.97"/>
<path d="M14.2702 26.9591C14.3561 27.174 14.3561 27.4054 14.1512 27.5079L13.9826 27.1641C14.0586 27.1244 14.0388 27.0351 14.0123 26.9856C13.9958 26.9525 13.9462 26.85 13.8834 26.8831C13.7413 26.9525 14.2008 27.5178 13.7975 27.7128C13.5562 27.8318 13.3743 27.6864 13.2454 27.4616L12.9975 27.6004L12.895 27.3889L13.1595 27.2765C13.0768 27.0517 13.0801 26.8038 13.295 26.698L13.4636 27.0418L13.457 27.0451C13.3644 27.0947 13.3975 27.2104 13.4239 27.2632C13.4504 27.3161 13.5033 27.4153 13.5727 27.3822C13.7214 27.3095 13.2752 26.7409 13.6619 26.5492C13.8867 26.4401 14.0553 26.5724 14.1809 26.7773L14.4322 26.6385L14.5346 26.85L14.2702 26.9591Z" fill="#FD7529" fill-opacity="0.97"/>
<path d="M5.6326 32.0399C5.50368 32.7737 4.80619 33.263 4.07564 33.1374C3.34178 33.0084 2.85254 32.3109 2.97816 31.5804C3.10708 30.8465 3.80457 30.3573 4.53512 30.4829C5.26568 30.6085 5.75822 31.306 5.6326 32.0399Z" fill="#FD7529" fill-opacity="0.97"/>
<path d="M5.38814 31.997C5.28567 32.5953 4.71379 32.9953 4.11546 32.8928C3.51714 32.7904 3.11715 32.2185 3.21963 31.6202C3.3221 31.0218 3.89398 30.6219 4.49231 30.7243C5.09063 30.8301 5.49062 31.3987 5.38814 31.997Z" fill="#FD7529" fill-opacity="0.97"/>
<path d="M4.27051 31.23C4.4986 31.2002 4.72669 31.2531 4.77297 31.4812L4.39612 31.5605C4.37629 31.4746 4.28373 31.4746 4.23084 31.4878C4.19778 31.4944 4.08539 31.5176 4.09861 31.587C4.13167 31.7424 4.7895 31.4349 4.88205 31.8713C4.93825 32.1324 4.75313 32.2746 4.50521 32.344L4.58124 32.6184L4.35315 32.6679L4.30687 32.3837C4.06886 32.4101 3.82755 32.344 3.77796 32.1093L4.15481 32.0299L4.15811 32.0366C4.18125 32.139 4.30356 32.1357 4.35976 32.1225C4.41596 32.1093 4.52835 32.0828 4.51182 32.0068C4.47876 31.8448 3.81763 32.139 3.72838 31.7159C3.67549 31.4713 3.84738 31.3391 4.07547 31.2696L4.00275 30.992L4.23084 30.9424L4.27051 31.23Z" fill="#FD7529" fill-opacity="0.97"/>
<path d="M13.0144 32.5258C12.8855 33.2597 12.188 33.7489 11.4575 33.6233C10.7236 33.4944 10.2344 32.7969 10.36 32.0664C10.4889 31.3325 11.1864 30.8433 11.917 30.9689C12.6508 31.0945 13.1434 31.792 13.0144 32.5258Z" fill="#FD7529" fill-opacity="0.97"/>
<path d="M12.7695 32.4828C12.667 33.0812 12.0951 33.4812 11.4968 33.3787C10.8985 33.2762 10.4985 32.7043 10.601 32.106C10.7034 31.5077 11.2753 31.1077 11.8737 31.2102C12.472 31.3159 12.8753 31.8845 12.7695 32.4828Z" fill="#FD7529" fill-opacity="0.97"/>
<path d="M11.6558 31.7159C11.8839 31.6862 12.1119 31.7391 12.1582 31.9672L11.7814 32.0465C11.7615 31.9606 11.669 31.9606 11.6161 31.9738C11.583 31.9804 11.4706 32.0035 11.4839 32.0729C11.5169 32.2283 12.1747 31.9209 12.2673 32.3572C12.3235 32.6184 12.1384 32.7605 11.8905 32.8299L11.9665 33.1043L11.7384 33.1539L11.6921 32.8696C11.4541 32.8961 11.2128 32.8299 11.1632 32.5952L11.5401 32.5159L11.5434 32.5225C11.5665 32.625 11.6888 32.6217 11.745 32.6085C11.8012 32.5952 11.9136 32.5688 11.8971 32.4928C11.864 32.3308 11.2029 32.625 11.1136 32.2019C11.0607 31.9572 11.2326 31.825 11.4607 31.7556L11.388 31.4779L11.6161 31.4283L11.6558 31.7159Z" fill="#FD7529" fill-opacity="0.97"/>
<path d="M4.12555 29.5011C4.12555 29.5011 3.45451 28.8268 2.82312 28.8036C2.18844 28.7838 1.20996 29.597 1.20996 29.597C1.20996 29.597 2.07274 30.6879 2.82312 30.549C3.68921 30.3904 4.12555 29.5011 4.12555 29.5011Z" fill="#7A1CD0"/>
<path d="M15.4239 29.5011C15.4239 29.5011 14.7528 28.8268 14.1215 28.8036C13.4868 28.7838 12.5083 29.597 12.5083 29.597C12.5083 29.597 13.3711 30.6879 14.1215 30.549C14.9875 30.3904 15.4239 29.5011 15.4239 29.5011Z" fill="#7A1CD0"/>
<path d="M23.8796 17.5281C23.8102 17.5876 23.6713 17.4289 23.6085 17.3992C23.4862 17.3397 23.3937 17.4289 23.2813 17.4653C23.2383 17.4785 23.1358 17.5281 23.1127 17.4785C23.0961 17.4454 23.1325 17.3959 23.1094 17.3694C23.0763 17.3364 22.9904 17.3959 22.9573 17.4091C22.8747 17.4355 22.7557 17.4488 22.7986 17.3231C22.8515 17.1711 23.0499 17.062 23.1821 17.0058C23.3176 16.9496 23.516 16.9066 23.6416 16.976C23.8069 17.0653 23.9226 17.2736 23.906 17.462C23.906 17.4917 23.8961 17.5149 23.8796 17.5281Z" fill="#E8A393"/>
<path d="M24.4583 17.1743C24.4848 17.0818 24.4055 16.9099 24.3658 16.8173C24.2964 16.6587 24.2005 16.5529 24.0947 16.4207C24.0551 16.4207 23.8865 16.6091 23.8204 16.6487C23.7179 16.7082 23.5493 16.7016 23.4733 16.7149C23.3774 16.7281 23.2815 16.7049 23.189 16.7314C23.0237 16.7843 22.8683 16.8273 22.703 16.8768C22.4948 16.9396 22.3725 17.062 22.2171 17.1314C22.1113 17.1777 21.8204 17.4553 21.9493 17.5975C22.0584 17.7198 22.313 17.4124 22.3824 17.3529C22.4783 17.2636 22.8353 17.1314 22.8353 17.1314C22.8353 17.1314 22.6468 17.1777 22.5708 17.214C22.5113 17.2438 22.4683 17.3198 22.4386 17.3793C22.389 17.4818 22.4452 17.5049 22.5278 17.5082C22.6369 17.5115 22.7097 17.452 22.789 17.3859C22.9146 17.2801 23.0667 17.2107 23.2253 17.1743C23.308 17.1545 23.3708 17.138 23.4567 17.1644C23.5295 17.1876 23.6187 17.2041 23.6782 17.257C23.8071 17.3694 23.5526 17.4983 23.5195 17.6041C23.4997 17.6636 23.4964 17.7628 23.5394 17.8156C23.589 17.8751 23.6848 17.8223 23.7278 17.7793C23.7807 17.733 23.8137 17.6702 23.8567 17.6173C23.9096 17.5545 23.9625 17.4851 24.0154 17.4223C24.0782 17.3495 24.1212 17.2967 24.2137 17.2603C24.2964 17.2272 24.4021 17.2305 24.4716 17.1777C24.4749 17.171 24.455 17.1777 24.4583 17.1743Z" fill="#FCD4CA"/>
<path d="M20.9448 18.738C20.9448 18.738 22.9315 16.4802 24.0852 17.6041C25.2389 18.7281 24.0026 20.2685 23.1233 21.1842L22.6472 20.7644C22.6472 20.7644 24.6703 19.2008 23.7282 18.1397C22.872 17.1777 21.3845 19.1975 21.3845 19.1975L20.9448 18.738Z" fill="#EBEBEB"/>
<path d="M21.3673 18.3148C21.0831 18.5694 20.9409 18.7379 20.9409 18.7379L21.3806 19.2007C21.3806 19.2007 21.5392 18.9892 21.7806 18.7346L21.3673 18.3148Z" fill="#C8C8C8"/>
<path d="M23.2485 20.1957C22.9378 20.5362 22.6436 20.7643 22.6436 20.7643L23.1196 21.1841C23.2882 21.0089 23.4667 20.8105 23.6386 20.5957L23.2485 20.1957Z" fill="#C8C8C8"/>
<path d="M18.8087 22.5626L11.6982 23.6369L11.8272 24.8567L20.7326 23.9741L18.8087 22.5626Z" fill="#EBEBEB"/>
<path d="M12.0321 23.5873L11.6982 23.6369L11.8272 24.8567L12.2503 24.8137C12.2106 24.4964 12.042 23.6832 12.0321 23.5873Z" fill="#EBEBEB"/>
<path d="M19.6152 23.5146C19.5953 23.4915 19.5722 23.465 19.5524 23.4419C17.959 23.6601 11.7808 24.4138 11.7808 24.4138L11.827 24.8567L20.1639 24.0303C19.9689 23.8815 19.7805 23.713 19.6152 23.5146Z" fill="#C8C8C8"/>
<path d="M19.2521 18.6917C19.2521 18.6917 18.0753 17.1611 17.0406 18.2057C15.9498 19.3098 17.3613 20.4999 17.3613 20.4999L17.7315 20.123C17.7315 20.123 16.7233 19.1578 17.434 18.5429C18.072 17.9942 18.8786 19.095 18.8786 19.095L19.2521 18.6917Z" fill="#EBEBEB"/>
<path d="M18.8786 19.095L19.0372 18.9363C18.8025 18.6652 17.996 17.7231 17.2357 18.4404C16.5415 19.0917 17.3513 20.0404 17.6059 20.2916L17.7315 20.123C17.7315 20.123 16.7233 19.1578 17.434 18.5429C18.0753 17.9942 18.8786 19.095 18.8786 19.095Z" fill="#C8C8C8"/>
<path d="M25.126 22.6782L21.4302 26.288L16.3296 21.3428L20.1642 17.5875L25.126 22.6782Z" fill="#EBEBEB"/>
<path d="M16.5015 21.1742L21.6021 26.1195L22.3723 25.3691L17.2419 20.4503L16.5015 21.1742Z" fill="#C8C8C8"/>
<path d="M20.8847 18.328L20.6103 18.0471L16.8154 21.8122L17.0964 22.0833L20.8847 18.328Z" fill="#C8C8C8"/>
<path d="M11.8871 23.6105L11.1202 23.4221C11.021 23.3989 10.9317 23.4816 10.9483 23.5807L11.2061 25.1047C11.2226 25.2005 11.3284 25.2501 11.4144 25.2038L12.0656 24.8369L11.8871 23.6105Z" fill="#EBEBEB"/>
<path d="M11.0933 24.4468L11.2023 25.1047C11.2189 25.2005 11.3247 25.2501 11.4106 25.2038L12.0618 24.8369L11.9891 24.3212L11.0933 24.4468Z" fill="#C8C8C8"/>
<path d="M31.3341 3.77985C31.3142 3.81621 31.2977 3.84927 31.2779 3.88563C31.0894 4.19967 30.8911 4.52362 30.6399 4.79799C30.4878 4.96327 30.2267 5.11203 30.1044 5.27731C30.0548 5.34342 30.0019 5.40623 29.9424 5.46243C30.1606 5.94836 30.7159 7.22435 30.8118 7.75325C30.8118 7.75325 32.4051 7.23426 32.8348 6.43099C32.8348 6.43099 31.7109 4.79138 31.3341 3.77985Z" fill="#FCD4CA"/>
<path d="M31.1394 6.70867C31.1361 6.21943 31.2849 5.70045 31.5725 5.30046C31.6716 5.16162 31.7774 5.03601 31.8898 4.9137C31.6683 4.52032 31.4568 4.11373 31.3311 3.77655C31.3113 3.81291 31.2948 3.84597 31.2749 3.88233C31.0865 4.19637 30.8882 4.52032 30.6369 4.79469C30.4849 4.95998 30.2237 5.10873 30.1014 5.27402C30.0518 5.34013 29.999 5.40294 29.9395 5.45913C30.1576 5.94506 30.713 7.22105 30.8088 7.74996C30.8088 7.74996 31.0832 7.6607 31.4303 7.49873C31.2551 7.28386 31.1427 7.00949 31.1394 6.70867Z" fill="#E8A393"/>
<path d="M31.5161 32.4829C31.5161 32.4829 31.6021 34.1489 31.3607 34.3968C31.1194 34.6448 27.8204 35.0051 27.5096 34.7241C27.2022 34.4431 27.3278 33.9208 28.022 33.6663C28.7658 33.3952 29.1559 33.5737 29.6153 33.3357C30.0781 33.101 29.8897 32.3572 29.8897 32.3572L31.5161 32.4829Z" fill="#110239"/>
<path d="M39.5951 32.3606C39.5951 32.3606 40.0711 33.9341 39.8529 34.2052C39.6348 34.4762 36.3258 35.1969 35.9919 34.9489C35.658 34.6977 35.7341 34.1655 36.4018 33.8481C37.1158 33.5077 37.5224 33.6465 37.9588 33.3655C38.3951 33.0845 38.1406 32.3672 38.1406 32.3672L39.5951 32.3606Z" fill="#110239"/>
<path d="M39.2608 23.3989C39.4194 18.7875 38.95 15.6074 38.7352 14.1166C38.1831 14.1265 37.6278 14.1662 37.0724 14.4075C36.051 14.8504 35.0262 15.2736 34.0015 15.6967C34.7981 17.4189 36.5038 23.0319 36.6989 24.2022C36.9435 25.6599 38.0245 32.9688 38.0245 32.9688L39.9054 32.8894C39.8988 31.6961 39.2475 23.7989 39.2608 23.3989Z" fill="#7A1CD0"/>
<path d="M35.6451 15.0389C35.1063 15.2902 34.551 15.4852 33.9956 15.6769C34.7757 17.3661 36.4649 22.9329 36.6963 24.1626C36.9674 23.389 38.0318 20.6387 38.5475 18.5892C38.8913 17.2207 38.9739 15.7959 38.7789 14.3976C38.7789 14.391 38.7789 14.3877 38.7756 14.3811C37.7442 14.434 36.7459 14.5299 35.6451 15.0389Z" fill="#7A1CD0"/>
<path d="M37.023 14.8142C36.3023 15.0423 34.9933 15.3662 34.0049 15.7001C33.2876 17.4191 31.357 22.3709 30.9967 24.1857C30.4976 26.698 29.6646 32.8069 29.6646 32.8069L31.7868 33.0879C31.7868 33.0879 33.9189 24.4204 34.2231 23.8684C35.228 22.0437 36.3255 20.5991 36.9568 19.4653C38.4808 16.7183 38.5766 15.3762 38.7816 14.4076C38.2196 14.5497 37.6246 14.6225 37.023 14.8142Z" fill="#7A1CD0"/>
<path d="M33.2681 7.18469C32.4516 6.79462 31.4698 7.11197 30.9608 7.85905C30.1244 9.08545 28.5642 11.363 28.0353 12.0209C27.3014 12.9365 23.8701 16.4736 23.8701 16.4736L24.7593 17.4686C24.7593 17.4686 29.265 13.991 29.8434 13.2539C30.4186 12.5167 33.9557 9.00611 33.8797 7.95822C33.8532 7.59459 33.602 7.34336 33.2681 7.18469Z" fill="#FD7529" fill-opacity="0.97"/>
<path opacity="0.65" d="M33.2681 7.18469C32.4516 6.79462 31.4698 7.11197 30.9608 7.85905C30.1244 9.08545 28.5642 11.363 28.0353 12.0209C27.3014 12.9365 23.8701 16.4736 23.8701 16.4736L24.7593 17.4686C24.7593 17.4686 29.265 13.991 29.8434 13.2539C30.4186 12.5167 33.9557 9.00611 33.8797 7.95822C33.8532 7.59459 33.602 7.34336 33.2681 7.18469Z" fill="#FD7529" fill-opacity="0.97"/>
<path d="M33.2679 16.9562C33.2679 16.9562 34.9836 16.8273 36.6298 16.2455C37.8496 15.8125 38.8876 15.0985 39.0495 14.5695C39.0495 14.5695 36.9901 9.55486 35.6117 7.86236C34.2332 6.16656 32.6597 6.16986 32.6597 6.16986C32.6597 6.16986 31.6614 7.13842 30.7061 7.3599C30.7061 7.3599 31.6614 11.0953 32.1077 12.5696C32.5539 14.0439 33.2679 16.9562 33.2679 16.9562Z" fill="#FD7529" fill-opacity="0.97"/>
<path opacity="0.65" d="M33.5354 11.2507C33.532 10.5763 33.6477 9.51188 33.3436 8.73505C33.2643 8.80116 33.1816 8.86727 33.1089 8.94C32.6693 9.37304 32.2362 9.83583 31.6677 10.1003C31.5949 10.1333 31.5189 10.1532 31.4429 10.173C31.6842 11.0788 31.9354 11.9944 32.1073 12.5696C32.5536 14.0439 33.2643 16.9562 33.2643 16.9562C33.2643 16.9562 33.7436 16.9199 34.4411 16.8009C33.6477 15.1943 33.5453 13.1184 33.5354 11.2507Z" fill="#FD7529" fill-opacity="0.97"/>
<path d="M31.1521 1.49558C31.1521 1.49558 29.777 0.57991 28.9902 1.11543C28.2035 1.65094 27.7605 2.09721 27.8365 2.47736C27.9159 2.85751 28.2498 3.83599 28.2299 4.28225C28.2134 4.72852 28.0117 5.41609 28.1076 5.55824C28.2035 5.69708 28.7026 5.47229 28.7621 5.51526C28.8216 5.55824 29.7042 6.46729 29.939 6.47721C30.177 6.48713 31.3802 4.94008 31.3472 4.32853C31.3141 3.71368 31.7141 2.28233 31.1521 1.49558Z" fill="#FCD4CA"/>
<path d="M29.5424 2.58648C29.4366 2.87407 29.03 3.37984 27.9325 3.49884C26.8317 3.61785 26.0317 1.41628 27.9325 0.487385C29.8333 -0.441506 30.1341 0.252683 30.5539 0.199793C30.9737 0.146902 31.3473 0.183265 31.7142 0.464246C32.3489 0.946872 32.815 1.69395 32.4051 2.9501C31.9919 4.21948 31.3439 4.42773 31.3439 4.42773C31.1754 4.22278 30.9704 3.82941 31.1026 3.59801C31.1555 3.50546 31.2481 3.43934 31.3109 3.26414C31.4299 2.94349 31.0167 2.55673 30.6233 2.87077C30.4382 3.01952 30.5506 3.43273 30.5043 3.63107C30.458 3.84263 30.3589 3.85916 30.2762 3.87238C30.1109 3.89883 29.7804 3.54512 29.8233 2.95341C29.8465 2.56995 29.6448 2.29889 29.5424 2.58648Z" fill="#110239"/>
<path d="M24.6335 17.2901C24.5542 17.3165 24.455 17.3364 24.4319 17.3562C24.3228 17.4521 24.0848 17.4785 23.979 17.4818C23.7443 17.4884 23.3774 17.4818 23.1856 17.6074C23.0732 17.6802 22.4154 18.1496 22.7162 18.3744C22.7559 18.4041 22.8716 18.4306 22.8947 18.4107C22.9576 18.3512 23.1361 18.1892 23.1361 18.1892C23.1361 18.1892 23.0005 18.3149 22.9774 18.3512C22.9576 18.3843 22.9146 18.4306 22.908 18.4669C22.8947 18.5463 23.0104 18.652 23.0832 18.6487C23.1559 18.6454 23.1757 18.5628 23.2187 18.5099L23.2154 18.5132C23.1823 18.5727 23.0832 18.6487 23.2154 18.771C23.3608 18.9099 23.3708 18.781 23.4336 18.7314C23.4567 18.7148 23.4765 18.6917 23.4997 18.6686C23.4798 18.695 23.3972 18.7876 23.384 18.814C23.341 18.9033 23.5757 19.0421 23.7046 18.9694C23.784 18.9231 23.9294 18.7248 23.9823 18.7181C24.0418 18.7115 24.1013 18.6851 24.1575 18.6686C24.3294 18.6157 24.4848 18.5 24.6071 18.3677C24.6633 18.3082 24.7757 18.1992 24.8286 18.1363C24.9608 17.9777 24.9971 17.9116 25.0302 17.8488C24.8252 17.6802 24.7129 17.5446 24.6335 17.2901Z" fill="#FCD4CA"/>
<path d="M24.9806 18.3148L24.0781 17.1612C24.0781 17.1612 27.1821 14.0803 28.3358 12.5663C29.4895 11.0556 30.5704 8.14332 31.5588 7.8392C32.5472 7.53508 33.6414 7.96151 33.2381 9.44575C32.8348 10.93 30.111 13.1845 29.5854 13.8819C29.0598 14.5861 25.5326 17.9049 24.9806 18.3148Z" fill="#FD7529" fill-opacity="0.97"/>
<path d="M16.4094 2.4245H15.2954V15.0753H16.4094C16.9185 15.0753 17.3284 14.6852 17.3284 14.2026V3.29719C17.3284 2.81457 16.9185 2.4245 16.4094 2.4245Z" fill="#CBCBCB"/>
<path opacity="0.65" d="M17.3284 5.60124V3.29719C17.3284 2.81457 16.9152 2.4245 16.4094 2.4245H15.2954V5.60124H17.3284Z" fill="#FD7529" fill-opacity="0.97"/>
<path d="M15.5333 15.7066H0.918974C0.413208 15.7066 0 15.2934 0 14.7877V3.3038C0 2.79473 0.413208 2.38483 0.918974 2.38483H15.5333C16.0424 2.38483 16.4523 2.79803 16.4523 3.3038V14.7844C16.4523 15.2934 16.0424 15.7066 15.5333 15.7066Z" fill="#EBEBEB"/>
<path d="M16.4093 2.38483C16.4093 2.38483 15.6193 2.38483 15.5333 2.38483H0.918974C0.413208 2.38483 0 2.79803 0 3.3038V5.57149H16.4523V3.95171C16.4523 3.91204 16.4556 3.87237 16.4589 3.83601C16.525 3.36661 17.2522 3.36661 17.3184 3.83601C17.325 3.87568 17.325 3.91204 17.325 3.95171V3.29719C17.3283 2.81456 16.9184 2.38483 16.4093 2.38483Z" fill="#FD7529" fill-opacity="0.97"/>
<path d="M16.4523 5.27722H0V5.57473H16.4523V5.27722Z" fill="white"/>
<path d="M6.6272 2.42449H5.72476C5.72476 2.42449 5.82723 1.15842 5.47022 0.867519V0.589844C5.46692 0.589844 6.6272 0.712153 6.6272 2.42449Z" fill="#110239"/>
<path d="M3.46436 2.42447H5.02463C5.02463 2.42447 4.84943 1.15841 5.46759 0.867507L5.84443 0.725364C5.64609 0.593137 5.46759 0.573303 5.28247 0.573303C4.78662 0.573303 3.46436 0.655945 3.46436 2.42447Z" fill="#C8C8C8"/>
<path d="M13.7117 2.42449H12.8092C12.8092 2.42449 12.9117 1.15842 12.5547 0.867519V0.589844C12.5547 0.589844 13.7117 0.712153 13.7117 2.42449Z" fill="#110239"/>
<path d="M10.5483 2.42447H12.1086C12.1086 2.42447 11.9334 1.15841 12.5516 0.867507L12.9284 0.725364C12.7301 0.593137 12.5516 0.573303 12.3665 0.573303C11.8706 0.573303 10.5483 0.655945 10.5483 2.42447Z" fill="#C8C8C8"/>
<path d="M2.89229 6.34167H1.13037V7.67716H2.89229V6.34167Z" fill="white"/>
<path d="M5.37813 6.34167H3.61621V7.67716H5.37813V6.34167Z" fill="white"/>
<path d="M7.86397 6.34167H6.10205V7.67716H7.86397V6.34167Z" fill="white"/>
<path d="M10.3498 6.34167H8.58789V7.67716H10.3498V6.34167Z" fill="white"/>
<path d="M12.8356 6.34167H11.0737V7.67716H12.8356V6.34167Z" fill="white"/>
<path d="M15.3215 6.34167H13.5596V7.67716H15.3215V6.34167Z" fill="white"/>
<path d="M2.89229 8.62262H1.13037V9.95811H2.89229V8.62262Z" fill="white"/>
<path d="M5.37813 8.62262H3.61621V9.95811H5.37813V8.62262Z" fill="white"/>
<path d="M7.86397 8.62262H6.10205V9.95811H7.86397V8.62262Z" fill="white"/>
<path d="M10.3498 8.62262H8.58789V9.95811H10.3498V8.62262Z" fill="white"/>
<path d="M12.8356 8.62262H11.0737V9.95811H12.8356V8.62262Z" fill="white"/>
<path d="M15.3215 8.62262H13.5596V9.95811H15.3215V8.62262Z" fill="white"/>
<path d="M2.89229 10.9035H1.13037V12.239H2.89229V10.9035Z" fill="white"/>
<path d="M5.37813 10.9035H3.61621V12.239H5.37813V10.9035Z" fill="white"/>
<path d="M7.86397 10.9035H6.10205V12.239H7.86397V10.9035Z" fill="white"/>
<path d="M10.3498 10.9035H8.58789V12.239H10.3498V10.9035Z" fill="white"/>
<path d="M12.8356 10.9035H11.0737V12.239H12.8356V10.9035Z" fill="white"/>
<path d="M15.3215 10.9035H13.5596V12.239H15.3215V10.9035Z" fill="white"/>
<path d="M2.89229 13.1844H1.13037V14.5199H2.89229V13.1844Z" fill="white"/>
<path d="M5.37813 13.1844H3.61621V14.5199H5.37813V13.1844Z" fill="white"/>
<path d="M7.86397 13.1844H6.10205V14.5199H7.86397V13.1844Z" fill="white"/>
<path d="M10.3498 13.1844H8.58789V14.5199H10.3498V13.1844Z" fill="white"/>
<path d="M2.01306 6.46069L2.14859 6.88051H2.59155L2.23454 7.13835L2.37007 7.55817L2.01306 7.30033L1.65605 7.55817L1.79158 7.13835L1.43457 6.88051H1.87753L2.01306 6.46069Z" fill="#FD7529" fill-opacity="0.97"/>
<path d="M2.01306 8.76471L2.14859 9.18453H2.59155L2.23454 9.44568L2.37007 9.86549L2.01306 9.60435L1.65605 9.86549L1.79158 9.44568L1.43457 9.18453H1.87753L2.01306 8.76471Z" fill="#FD7529" fill-opacity="0.97"/>
<path d="M4.4989 6.46069L4.63443 6.88051H5.07739L4.72038 7.13835L4.85591 7.55817L4.4989 7.30033L4.14189 7.55817L4.27742 7.13835L3.92041 6.88051H4.36337L4.4989 6.46069Z" fill="#FD7529" fill-opacity="0.97"/>
<path d="M6.98474 6.46069L7.12027 6.88051H7.56323L7.20622 7.13835L7.34175 7.55817L6.98474 7.30033L6.62773 7.55817L6.76326 7.13835L6.40625 6.88051H6.84921L6.98474 6.46069Z" fill="#FD7529" fill-opacity="0.97"/>
<path d="M6.98474 8.74158L7.12027 9.1614H7.56323L7.20622 9.41924L7.34175 9.83906L6.98474 9.58121L6.62773 9.83906L6.76326 9.41924L6.40625 9.1614H6.84921L6.98474 8.74158Z" fill="#FD7529" fill-opacity="0.97"/>
<path d="M9.47058 6.46069L9.60611 6.88051H10.0491L9.68875 7.13835L9.82759 7.55817L9.47058 7.30033L9.11357 7.55817L9.2491 7.13835L8.89209 6.88051H9.33174L9.47058 6.46069Z" fill="#FD7529" fill-opacity="0.97"/>
<path d="M9.47058 8.74158L9.60611 9.1614H10.0491L9.68875 9.41924L9.82759 9.83906L9.47058 9.58121L9.11357 9.83906L9.2491 9.41924L8.89209 9.1614H9.33174L9.47058 8.74158Z" fill="#FD7529" fill-opacity="0.97"/>
<path d="M11.9564 6.46069L12.092 6.88051H12.5316L12.1746 7.13835L12.3134 7.55817L11.9564 7.30033L11.5961 7.55817L11.7349 7.13835L11.3779 6.88051H11.8176L11.9564 6.46069Z" fill="#FD7529" fill-opacity="0.97"/>
<path d="M4.4989 11.0522L4.63443 11.4721H5.07739L4.72038 11.7299L4.85591 12.1497L4.4989 11.8919L4.14189 12.1497L4.27742 11.7299L3.92041 11.4721H4.36337L4.4989 11.0522Z" fill="#FD7529" fill-opacity="0.97"/>
<path d="M4.4989 13.3035L4.63443 13.7233H5.07739L4.72038 13.9844L4.85591 14.4043L4.4989 14.1431L4.14189 14.4043L4.27742 13.9844L3.92041 13.7233H4.36337L4.4989 13.3035Z" fill="#FD7529" fill-opacity="0.97"/>
<path d="M9.47058 11.0225L9.60611 11.4423H10.0491L9.68875 11.7034L9.82759 12.1232L9.47058 11.8621L9.11357 12.1232L9.2491 11.7034L8.89209 11.4423H9.33174L9.47058 11.0225Z" fill="#FD7529" fill-opacity="0.97"/>
<path d="M11.9564 11.0225L12.092 11.4423H12.5316L12.1746 11.7034L12.3134 12.1232L11.9564 11.8621L11.5961 12.1232L11.7349 11.7034L11.3779 11.4423H11.8176L11.9564 11.0225Z" fill="#FD7529" fill-opacity="0.97"/>
<path d="M18.9972 7.99486C19.2386 6.51187 18.232 5.11405 16.749 4.87275C15.266 4.63144 13.8682 5.63803 13.6269 7.12102C13.3856 8.60401 14.3921 10.0018 15.8751 10.2431C17.3581 10.4844 18.7559 9.47786 18.9972 7.99486Z" fill="#F45762"/>
<path d="M18.2834 7.5582C18.2834 8.64576 17.4008 9.53168 16.3099 9.53168C15.219 9.53168 14.3364 8.64907 14.3364 7.5582C14.3364 6.46733 15.219 5.58472 16.3099 5.58472C17.4008 5.58472 18.2834 6.47063 18.2834 7.5582Z" fill="white"/>
<path d="M16.1516 7.54498C16.1053 7.54498 15.7153 6.42105 15.583 6.46403C15.3979 6.52683 14.8888 6.77145 14.8756 6.98302C14.8624 7.19458 15.9004 9.016 16.0723 9.016C16.4359 9.016 17.9697 6.99624 17.8441 6.76484C17.7218 6.53675 17.1433 6.21941 17.0573 6.30536C16.9945 6.37147 16.1913 7.54498 16.1516 7.54498Z" fill="#BBEADB"/>
</svg>
