<svg width="40" height="34" viewBox="0 0 40 34" fill="none" xmlns="http://www.w3.org/2000/svg">
<path d="M29.3486 28.0135C34.615 25.7253 37.0744 19.4947 34.8419 14.097C32.6094 8.69936 26.5304 6.1786 21.2641 8.46677C15.9977 10.7549 13.5383 16.9856 15.7708 22.3832C18.0033 27.7809 24.0823 30.3017 29.3486 28.0135Z" fill="#7A1CD0"/>
<path d="M28.3684 25.6501C32.3613 23.9174 34.2277 19.1951 32.5372 15.1027C30.8466 11.0102 26.2393 9.09722 22.2464 10.8299C18.2535 12.5626 16.3871 17.2849 18.0776 21.3774C19.7682 25.4698 24.3755 27.3828 28.3684 25.6501Z" fill="#EBEBEB"/>
<path d="M30.8424 19.1527C31.334 16.0199 29.2547 13.0717 26.1981 12.5678C23.1415 12.064 20.2651 14.1951 19.7735 17.3279C19.2818 20.4608 21.3612 23.4089 24.4178 23.9128C27.4744 24.4167 30.3508 22.2855 30.8424 19.1527Z" fill="#7A1CD0"/>
<path d="M29.1666 18.2397C29.1666 20.4235 27.4398 22.1933 25.3091 22.1933C23.1784 22.1933 21.4517 20.4235 21.4517 18.2397C21.4517 16.0558 23.1784 14.286 25.3091 14.286C27.4398 14.286 29.1666 16.0558 29.1666 18.2397Z" fill="#EBEBEB"/>
<path d="M27.0861 18.2397C27.0861 19.2473 26.2889 20.0644 25.3058 20.0644C24.3226 20.0644 23.5254 19.2473 23.5254 18.2397C23.5254 17.232 24.3226 16.4149 25.3058 16.4149C26.2889 16.4149 27.0861 17.232 27.0861 18.2397Z" fill="#7A1CD0"/>
<path d="M38.5762 11.2227C38.4153 11.0395 37.9363 10.3983 36.8638 11.3913C35.8449 12.3366 34.6079 13.685 34.6079 13.685C34.6079 13.685 36.3561 13.2197 37.6538 12.758C39.0195 12.2707 38.7085 11.4352 38.5762 11.2227Z" fill="#7A1CD0"/>
<path d="M37.0639 11.6478L35.2657 12.3513C34.7259 12.5638 34.2039 12.824 33.707 13.1318L25.3057 18.3496L33.7606 14.788C34.7151 14.3849 35.5982 13.8316 36.3811 13.1428L37.3428 12.2963C37.2034 12.1058 37.1104 11.8859 37.0639 11.6478Z" fill="#110239"/>
<path d="M34.3613 13.6851C34.3613 13.6851 34.6044 10.9589 36.0559 9.80835C37.5074 8.6578 37.1999 12.0179 37.1999 12.0179L34.3613 13.6851Z" fill="#7A1CD0"/>
<path d="M34.3613 13.6704C34.3613 13.6704 36.7852 14.8209 38.4833 14.1064C40.1815 13.3919 37.1892 11.9885 37.1892 11.9885L34.3613 13.6704Z" fill="#7A1CD0"/>
<path opacity="0.35" d="M26.7423 26.9714C26.66 24.2306 27.9721 21.171 26.9317 18.5804C25.9379 16.1034 24.2326 12.824 22.1698 11.1018C21.2117 10.303 20.0391 10.1858 18.938 9.87067C16.5105 11.8127 14.9482 14.8393 14.9482 18.2397C14.9482 24.1024 19.5851 28.8548 25.3051 28.8548C25.8235 28.8548 26.3311 28.8145 26.8281 28.7412C26.778 28.1293 26.7566 27.5284 26.7423 26.9714Z" fill="#C9071E"/>
<path d="M11.6308 5.93533C11.6308 5.93533 8.4633 6.74511 6.08948 8.5479C3.71566 10.3507 1.25246 15.9386 0.76626 19.8592C0.283631 23.7799 -0.685203 26.8468 0.76626 28.8512C2.21772 30.8555 6.92246 31.2622 10.9694 31.6689C15.0163 32.0756 20.597 31.0826 21.7195 29.639C22.8421 28.1953 22.7527 17.2797 20.6434 13.1611C18.5342 9.04256 14.7089 5.84373 11.6308 5.93533Z" fill="#FD7529" fill-opacity="0.97"/>
<path d="M20.6614 23.6883C18.6272 23.67 17.0184 24.117 15.8494 25.9271C15.0772 27.1253 14.044 28.994 14.6339 30.4927C14.7947 30.9067 15.0057 31.2805 15.2237 31.6506C18.191 31.3757 20.9652 30.6099 21.7196 29.6389C22.1879 29.038 22.4417 26.7918 22.431 24.0803C21.8733 23.9008 21.312 23.6956 20.6614 23.6883Z" fill="#FD7529" fill-opacity="0.97"/>
<path d="M17.0219 29.4227C16.2104 29.1443 15.3703 28.8438 14.7017 28.2758C13.261 27.0593 12.3815 26.6966 10.5904 26.7149C8.9495 26.7332 7.36577 26.7259 5.9572 25.7732C4.70237 24.9231 4.00166 23.0251 4.30554 21.5337C4.52719 20.4491 4.84537 19.5844 5.49602 18.694C6.41838 17.4372 6.59356 16.5358 6.26823 14.9675C5.87498 13.0915 5.81778 11.4902 6.35403 9.63246C6.63288 8.67244 7.28354 7.97625 8.02 7.34601C7.36934 7.68311 6.70438 8.08251 6.08948 8.54786C3.71566 10.3506 1.25246 15.9385 0.76626 19.8592C0.283631 23.7799 -0.685203 26.8468 0.76626 28.8511C2.21772 30.8554 6.92246 31.2622 10.9694 31.6689C15.0163 32.0756 20.597 31.0826 21.7195 29.6389C21.9376 29.3604 22.1092 28.7192 22.2307 27.8435C20.8258 29.2725 19.0061 30.097 17.0219 29.4227Z" fill="#FD7529" fill-opacity="0.97"/>
<path d="M11.1911 6.74508C11.1911 6.74508 7.79486 5.89865 7.33368 3.2641C6.8725 0.625883 8.22386 -0.2865 9.26419 0.321756C10.3045 0.930011 10.469 0.603898 11.1947 0.14221C11.9204 -0.319477 12.9751 0.424353 13.5042 1.20116C14.0333 1.97797 14.1298 1.06559 15.3846 0.962988C16.6395 0.860391 17.0649 2.04392 16.4071 3.6012C15.7421 5.15482 15.1129 6.81103 11.1911 6.74508Z" fill="#FD7529" fill-opacity="0.97"/>
<path d="M14.8733 5.2611C13.9938 5.49194 14.5158 4.32673 14.3728 3.92367C14.144 3.93466 14.0582 4.32673 13.9795 4.49528C13.8151 4.8617 13.4397 5.1072 13.0429 5.10354C12.4959 5.09621 12.4172 4.48429 12.1848 4.10688C12.0847 3.94932 12.0418 3.95298 11.9775 4.14352C11.9096 4.35238 11.9739 4.59788 11.7844 4.76277C11.4341 5.06323 10.8478 4.72246 10.5761 4.48062C10.2794 4.2168 10.1542 3.78076 9.83605 3.52427C9.77885 3.58656 9.75382 3.66717 9.73595 3.75145C9.6573 4.13253 9.67875 4.85437 9.07814 4.7188C8.56691 4.60521 8.22371 3.75145 8.05926 3.31541C7.86978 2.81342 7.69103 2.21616 7.69103 1.67386C7.69103 1.43935 7.70533 1.21217 7.73751 0.981324C7.75896 0.845749 7.80186 0.556278 7.86621 0.446352L7.86263 0.442688C7.37285 0.882391 7.0797 1.81309 7.33353 3.26411C7.72678 5.5066 10.2436 6.45196 10.9872 6.68646C11.1159 6.72677 11.2518 6.74876 11.3876 6.74876C14.48 6.75608 15.4417 5.65316 16.0459 4.40734C16.0423 4.40734 16.0423 4.411 16.0387 4.41467C16.0387 4.411 15.1879 5.18048 14.8733 5.2611Z" fill="#FD7529" fill-opacity="0.97"/>
<path d="M12.6212 14.5792C14.2872 14.7477 15.7923 15.5135 15.7637 17.2247L12.9823 17.1734C12.9787 16.5285 12.3352 16.3783 11.9277 16.3709C11.6739 16.3673 10.8444 16.3526 10.8373 16.8729C10.8158 18.0418 15.9639 16.9206 15.9067 20.233C15.8709 22.219 14.3408 22.9298 12.4747 23.0361L12.5569 25.1503L10.8588 25.121L11.0018 22.9958C9.27859 22.7796 7.68412 21.9185 7.7163 20.1304L10.4977 20.1817V20.244C10.4977 21.0281 11.3521 21.2003 11.7883 21.2077C12.2101 21.215 13.0359 21.2003 13.0467 20.6287C13.0681 19.4122 7.92365 20.4272 7.98085 17.2247C8.01303 15.3779 9.42159 14.6927 11.1555 14.5718L11.0876 12.4429L12.7857 12.4722L12.6212 14.5792Z" fill="white"/>
<path d="M26.7425 28.8511C26.7425 31.6945 24.4938 33.9993 21.7195 33.9993C18.9453 33.9993 16.7002 31.6945 16.7002 28.8511C16.7002 26.0077 18.9489 23.7066 21.7195 23.7066C24.4902 23.7066 26.7425 26.0114 26.7425 28.8511Z" fill="white"/>
<path d="M25.8199 28.8511C25.8199 31.1706 23.986 33.0503 21.723 33.0503C19.46 33.0503 17.626 31.1706 17.626 28.8511C17.626 26.5317 19.46 24.652 21.723 24.652C23.9824 24.652 25.8199 26.5317 25.8199 28.8511Z" fill="#A8DCA4"/>
<path d="M21.2332 26.6892C22.0554 26.4291 22.917 26.4841 23.2388 27.3012L21.9089 27.8471C21.7802 27.543 21.4477 27.6016 21.2511 27.6822C21.1295 27.7335 20.7327 27.8948 20.8328 28.1439C21.0509 28.7045 23.271 27.118 23.8894 28.7009C24.2612 29.6499 23.6714 30.3021 22.8098 30.7308L23.2602 31.7165L22.4487 32.05L22.1019 31.013C21.2403 31.2622 20.318 31.1815 19.9855 30.3278L21.3118 29.7818L21.3226 29.8111C21.4763 30.1849 21.9124 30.0896 22.1234 30.0053C22.3236 29.9211 22.7132 29.7452 22.606 29.474C22.3808 28.8914 20.1392 30.4267 19.5386 28.8951C19.1954 28.012 19.7281 27.4001 20.5253 26.986L20.0785 25.9894L20.89 25.6559L21.2332 26.6892Z" fill="white"/>
<path d="M8.71712 5.49194L8.40967 7.15182C8.40967 7.15182 9.2784 8.00924 11.6415 8.00924C14.0046 8.00924 15.2809 7.15182 15.2809 7.15182L15.1271 5.65317C15.1271 5.65317 11.8917 6.49227 8.71712 5.49194Z" fill="white"/>
</svg>
