<svg width="21" height="19" viewBox="0 0 21 19" fill="none" xmlns="http://www.w3.org/2000/svg">
<path d="M6.03014 16.3201C6.14257 16.304 6.25782 16.3192 6.36046 16.3637C7.53947 16.8748 8.83292 17.148 10.171 17.1569C15.1062 17.1898 19.1311 13.6157 19.1607 9.17397C19.1903 4.73221 15.2135 1.10477 10.2782 1.07186C5.34291 1.03896 1.31805 4.61304 1.28844 9.05481C1.277 10.7708 1.86403 12.4084 2.94881 13.7759C3.06575 13.9234 3.08567 14.1159 3.00098 14.2799L1.62208 16.9513L6.03014 16.3201ZM0.761466 18.0927C0.319566 18.156 -0.0220967 17.7491 0.166369 17.3839L1.85336 14.1158C0.752364 12.6279 0.159227 10.876 0.17142 9.04736C0.204737 4.05037 4.7327 0.0295287 10.2849 0.066548C15.8371 0.103567 20.3111 4.18443 20.2777 9.18142C20.2444 14.1784 15.7165 18.1992 10.1642 18.1622C8.72054 18.1526 7.32088 17.8689 6.0372 17.3373L0.761466 18.0927Z" fill="#FD7529"/>
</svg>
