<svg width="164" height="164" viewBox="0 0 164 164" fill="none" xmlns="http://www.w3.org/2000/svg">
<mask id="mask0_180_29473" style="mask-type:alpha" maskUnits="userSpaceOnUse" x="0" y="0" width="164" height="164">
<circle cx="82" cy="82" r="82" fill="url(#paint0_linear_180_29473)"/>
<circle cx="82" cy="82" r="82" fill="url(#paint1_linear_180_29473)"/>
</mask>
<g mask="url(#mask0_180_29473)">
<path d="M70.9037 61.2009C53.3274 83.8374 57.895 79.2809 54.6509 82.151C51.4068 85.0211 30.0214 97.4906 30.0214 97.4906L32.3133 108.225C32.3133 108.225 58.476 93.2585 61.7201 90.5829C64.9642 87.8912 77.4727 74.2704 77.4727 74.2704L70.9037 61.2009Z" fill="#FD7529" fill-opacity="0.97"/>
<path opacity="0.65" d="M40.3348 93.08C41.5937 93.907 43.2238 94.1502 44.9347 93.226C48.5984 91.2477 52.1815 89.3181 55.474 87.0155C57.4431 85.8156 59.3314 84.3887 61.0745 82.7347C64.125 79.8322 67.1431 76.7837 69.7255 73.4758C71.0974 71.7084 73.0342 70.2652 74.632 68.6437L77.4727 74.3028C77.4727 74.3028 64.9642 87.9236 61.7201 90.6153C58.476 93.307 32.3133 108.257 32.3133 108.257L30.0537 97.6203C33.4753 96.2907 36.9454 94.7664 40.3348 93.08Z" fill="#FD7529" fill-opacity="0.97"/>
<path d="M75.084 104.609L100.859 107.479C100.859 107.479 77.8116 144.499 76.0685 150.45C74.3254 156.401 76.7141 188.718 76.7141 188.718H65.045C65.045 188.718 62.5433 150.547 63.1082 147.661C63.6731 144.79 75.084 104.609 75.084 104.609Z" fill="#F45762"/>
<path d="M76.0526 106.522H105.492C105.492 106.522 108.93 115.587 107.348 122.494C105.766 129.402 104.717 144.077 104.862 146.671C105.008 149.266 119.372 183.788 119.372 183.788L108.655 187.793C108.655 187.793 93.8872 154.876 92.4508 151.131C91.0304 147.385 76.0526 106.522 76.0526 106.522Z" fill="#F45762"/>
<path d="M77.3115 45.3586C79.7163 45.5207 82.1857 45.2775 84.413 44.791C85.2362 44.6127 86.0593 44.3208 86.834 43.9316C87.0761 46.899 87.9154 53.8392 90.3687 56.4498C90.3687 56.4498 90.0297 59.9523 83.9288 60.8117C77.8118 61.6711 76.5529 57.1146 76.5529 57.1146C76.5529 57.1146 77.715 49.7367 77.3115 45.3586Z" fill="#FCD4CA"/>
<path d="M90.3364 56.5633C90.3202 56.6282 90.3041 56.7092 90.2718 56.8228C90.2718 56.839 90.2718 56.839 90.2557 56.8552C90.2234 56.9687 90.175 57.0984 90.1104 57.2444V57.2606C90.0459 57.4065 89.949 57.5687 89.8522 57.7308C89.836 57.747 89.8199 57.7795 89.8038 57.7957C89.5778 58.1362 89.255 58.5254 88.8192 58.8983C88.7869 58.9145 88.7708 58.9469 88.7385 58.9632C88.5126 59.1415 88.2543 59.3199 87.9638 59.4983C87.9315 59.5145 87.8831 59.5469 87.8508 59.5631C87.5442 59.7415 87.2052 59.9036 86.8179 60.0658C86.4305 58.5254 85.6558 57.0822 84.4776 55.9309C82.3956 53.8878 79.8293 52.8662 77.0855 52.7689C77.3276 50.4015 77.5052 47.5152 77.3115 45.3586C79.7163 45.5207 82.1857 45.2775 84.413 44.791C85.2362 44.6127 86.0593 44.3208 86.834 43.9316C87.0761 46.899 87.9154 53.8392 90.3687 56.4498C90.3687 56.4498 90.3687 56.4822 90.3525 56.5309C90.3364 56.5471 90.3364 56.5471 90.3364 56.5633Z" fill="#E8A393"/>
<path d="M87.221 27.7002C87.221 27.7002 76.9884 25.1706 75.4874 27.7002C73.9863 30.2298 74.4705 34.1863 73.8734 35.97C73.2762 37.7536 70.8552 39.7157 70.6292 40.4129C70.3871 41.1264 72.4046 42.375 72.6952 42.9101C72.9857 43.4452 74.2769 49.1367 76.0845 50.3204C77.8922 51.5042 87.1403 47.7098 89.2708 43.1371C91.4013 38.5644 89.9971 29.0298 87.221 27.7002Z" fill="#FCD4CA"/>
<path d="M76.5366 56.0931C76.5366 56.0931 83.7189 59.6767 89.5615 55.3634C89.5615 55.3634 100.666 57.3092 102.038 57.8768C103.167 58.3308 100.198 74.2217 101.489 82.2158C102.78 90.2099 107.929 109.555 107.929 109.555C107.929 109.555 94.3228 120.062 70.9845 113.446C70.9845 113.446 70.226 86.3183 70.4681 78.7782C70.8393 67.7518 70.9038 61.2333 70.9038 61.2333C70.9038 61.2333 73.5669 58.4443 76.5366 56.0931Z" fill="#FD7529" fill-opacity="0.97"/>
<path opacity="0.65" d="M93.532 100.004C94.5488 95.8042 95.2589 91.718 94.5326 87.3723C93.7418 82.6699 97.0989 76.4757 97.7122 71.7084C98.3901 66.6006 98.9065 63.1305 102.248 60.2928C102.022 65.1088 100.472 76.0216 101.473 82.2158C102.764 90.1937 107.913 109.555 107.913 109.555C107.913 109.555 99.2778 116.187 83.9933 115.554C90.0135 111.89 91.8534 106.96 93.532 100.004Z" fill="#FD7529" fill-opacity="0.97"/>
<path d="M142 108.241L125.102 153.903L22 117.646L38.4143 72.5677L142 108.241Z" fill="#D8ADFF"/>
<path d="M132.623 112.863L120.937 145.634L30.3764 113.236L42.3361 80.6105L132.623 112.863Z" fill="white"/>
<path d="M43.3369 101.853C43.3369 104.998 45.8708 107.528 48.9858 107.528C52.1169 107.528 54.6348 104.982 54.6348 101.853C54.6348 98.7068 52.1008 96.1772 48.9858 96.1772C45.8708 96.161 43.3369 98.7068 43.3369 101.853Z" fill="#D8ADFF"/>
<path d="M115.289 129.694C112.169 129.694 109.64 127.153 109.64 124.019C109.64 120.884 112.169 118.343 115.289 118.343C118.408 118.343 120.938 120.884 120.938 124.019C120.938 127.153 118.408 129.694 115.289 129.694Z" fill="#D8ADFF"/>
<path d="M67.4336 113.09C67.7726 120.905 74.3576 126.954 82.1209 126.613C89.9003 126.273 95.9205 119.657 95.5816 111.857C95.2426 104.042 88.6576 97.9932 80.8943 98.3338C73.1149 98.6743 67.0785 105.274 67.4336 113.09Z" fill="#D8ADFF"/>
<path d="M70.0161 112.976C70.2905 119.349 75.6651 124.294 82.0081 124.019C88.351 123.743 93.2737 118.343 92.9993 111.971C92.7249 105.598 87.3504 100.653 81.0074 100.928C74.6483 101.204 69.7418 106.604 70.0161 112.976Z" fill="white"/>
<path d="M82.6053 106.458C80.2651 105.841 77.8602 106.101 77.0532 108.387L80.8461 109.717C81.1689 108.857 82.105 108.987 82.6699 109.182C83.025 109.312 84.1386 109.701 83.8965 110.398C83.3478 111.955 76.9402 107.885 75.3908 112.295C74.4708 114.954 76.1817 116.657 78.6672 117.743L77.5213 120.5L79.8293 121.311L80.6847 118.424C83.1218 119.008 85.7042 118.668 86.5273 116.284L82.7345 114.954L82.7022 115.035C82.3148 116.073 81.0721 115.879 80.491 115.668C79.91 115.473 78.8125 115.035 79.0707 114.273C79.6356 112.652 86.1077 116.592 87.5926 112.311C88.448 109.847 86.8824 108.225 84.5906 107.187L85.7203 104.398L83.4123 103.588L82.6053 106.458Z" fill="#D8ADFF"/>
<path d="M82.8313 29.1433C82.8313 29.1433 82.6376 31.6404 84.1386 34.3322C84.8004 35.5159 81.9275 38.8886 82.8313 40.3156C83.4285 41.2723 84.2355 40.9804 84.8972 39.0184C85.1232 38.3535 85.8172 37.8509 86.4628 37.5428C88.8837 36.3591 89.6262 40.1048 87.4634 41.3372C85.9463 42.1966 87.0438 46.1044 87.0438 46.1044C88.7708 47.3206 94.2099 45.5045 93.4191 41.4993C92.9187 38.9535 92.7089 37.9806 93.5643 37.2996C95.1299 36.0834 97.0989 32.8404 94.3068 30.2946C90.4655 26.7921 93.758 25.4624 89.4648 24.603C85.1716 23.7436 81.7661 26.5164 82.8313 29.1433Z" fill="#110239"/>
<path d="M90.2554 26.63C89.981 25.7057 88.2379 24.5869 87.3825 24.0031C86.059 23.0951 84.5419 22.56 82.9279 22.2357C81.33 21.9114 79.6515 21.9114 78.0698 22.3005C76.6979 22.6248 75.5681 23.3059 74.1639 23.5329C72.8727 23.7437 71.5654 23.7437 70.6131 23.014C70.371 23.8896 70.4517 25.6409 70.5809 26.2246C70.8714 27.4732 71.7591 28.5758 72.5499 29.6623C74.745 32.6459 80.3939 34.089 84.2513 32.2729C86.1074 31.3973 87.786 30.6514 88.6414 28.9488C89.1417 27.9597 89.5291 27.4894 90.2554 26.63Z" fill="#110239"/>
<path d="M24.9699 105.112C22.8233 103.993 22.3553 100.896 22.8233 98.8526C23.1946 97.1987 24.8408 96.8095 27.2295 96.1609C28.8435 95.7231 30.3768 95.3663 30.9578 95.7069C32.7493 97.4095 27.2779 98.4634 25.9383 99.031C25.9383 99.031 31.5873 97.2311 32.2813 98.1716C33.4918 99.939 28.1333 100.831 26.8422 101.285C28.0527 100.701 30.3929 100.231 30.7803 100.425C31.8132 100.247 31.7487 101.074 31.668 101.301C31.2483 102.388 26.8744 103.166 26.8744 103.166C27.6491 103.02 30.4091 101.901 30.054 103.279C29.828 104.171 28.5853 104.447 27.9558 104.723C26.7292 105.258 25.4541 105.371 24.9699 105.112Z" fill="#FCD4CA"/>
<path d="M95.9531 99.7607C93.9357 99.6797 91.4824 100.069 89.4004 100.069C88.4481 100.069 87.4636 99.9229 86.5275 99.8743C85.9303 99.8418 84.7198 99.631 84.3809 100.312C83.9935 101.042 85.1878 101.301 85.672 101.415C86.3499 101.561 87.7541 101.463 87.8832 102.388C88.0769 103.717 85.5913 104.074 84.623 104.496C83.7353 104.885 81.3466 105.728 82.9121 106.604C83.9612 107.204 86.1724 105.841 87.0601 105.485C85.8819 105.809 84.8651 106.231 83.816 106.847C83.2026 107.204 82.0083 107.674 82.0083 108.371C82.0083 109.376 84.2195 108.776 84.7682 108.533C86.0755 107.966 86.3338 107.82 87.2376 107.155C86.3015 107.658 82.896 109.101 84.0096 110.301C84.6875 111.03 87.3667 108.987 88.432 108.549C87.8509 109.085 86.0917 109.376 86.2369 110.528C86.3015 111.095 87.3022 110.641 87.7702 110.382C88.4481 110.009 89.0453 109.474 89.707 109.166C90.2396 108.906 90.5786 108.598 91.1596 108.193C92.3701 107.333 93.4676 107.122 94.5167 106.004C95.5012 104.95 96.4051 103.896 97.4219 103.02C95.4689 102.274 97.4542 100.815 95.9531 99.7607Z" fill="#FCD4CA"/>
<path d="M92.9991 99.2257L95.872 105.874C95.872 105.874 125.44 96.2421 124.052 88.4263C122.842 81.5835 105.62 58.6389 101.876 57.812C96.8404 56.7093 94.8229 68.7735 97.7119 71.6922C103.813 77.854 112.512 86.5291 111.802 87.9236C111.092 89.3344 92.9991 99.2257 92.9991 99.2257Z" fill="#FD7529" fill-opacity="0.97"/>
</g>
<defs>
<linearGradient id="paint0_linear_180_29473" x1="82" y1="0" x2="82" y2="164" gradientUnits="userSpaceOnUse">
<stop stop-color="#FE9333"/>
<stop offset="1" stop-color="#FF3CA7"/>
</linearGradient>
<linearGradient id="paint1_linear_180_29473" x1="82" y1="0" x2="82" y2="164" gradientUnits="userSpaceOnUse">
<stop stop-color="#FE9333"/>
<stop offset="1" stop-color="#FF3CA7"/>
</linearGradient>
</defs>
</svg>
