<svg width="164" height="164" viewBox="0 0 164 164" fill="none" xmlns="http://www.w3.org/2000/svg">
<mask id="mask0_180_29372" style="mask-type:alpha" maskUnits="userSpaceOnUse" x="0" y="0" width="164" height="164">
<circle cx="82" cy="82" r="82" fill="url(#paint0_linear_180_29372)"/>
<circle cx="82" cy="82" r="82" fill="url(#paint1_linear_180_29372)"/>
</mask>
<g mask="url(#mask0_180_29372)">
<path d="M89.948 51.06C89.948 51.06 84.4777 70.8037 81.7903 74.0334C79.1029 77.263 70.3091 82.02 70.3091 82.02L72.6467 86.1405C72.6467 86.1405 88.6123 77.9949 91.3951 71.3447C93.0012 67.4627 94.0825 64.1217 94.6232 61.1148C95.0685 58.6648 96.8654 52.5873 95.9749 50.1691C95.3547 48.5781 91.1884 47.7349 89.948 51.06Z" fill="#FD7529" fill-opacity="0.97"/>
<path opacity="0.65" d="M89.948 51.06C89.948 51.06 84.4777 70.8037 81.7903 74.0334C79.1029 77.263 70.3091 82.02 70.3091 82.02L72.6467 86.1405C72.6467 86.1405 88.6123 77.9949 91.3951 71.3447C93.0012 67.4627 94.0825 64.1217 94.6232 61.1148C95.0685 58.6648 96.8654 52.5873 95.9749 50.1691C95.3547 48.5781 91.1884 47.7349 89.948 51.06Z" fill="#FD7529" fill-opacity="0.97"/>
<path d="M35.134 145.26L31.1108 141.49C31.1108 141.49 14.9861 140.297 14.0479 141.713C13.1097 143.128 29.3297 150.781 31.4129 150.654C33.4961 150.526 34.8636 146.819 35.134 145.26Z" fill="#110239"/>
<path d="M64.6797 90.7066C64.6797 90.7066 49.4297 86.8247 48.1735 89.3384C46.9172 91.8521 31.0947 141.506 31.0947 141.506L35.1179 145.276C35.1179 145.276 52.0853 103.371 56.9991 98.9795C61.9287 94.5885 66.9537 92.4248 64.6797 90.7066Z" fill="#FCD4CA"/>
<path d="M64.6797 90.7066C64.6797 90.7066 49.4297 86.8247 48.1735 89.3384C46.9172 91.8521 31.0947 141.506 31.0947 141.506L35.1179 145.276C35.1179 145.276 52.0853 103.371 56.9991 98.9795C61.9287 94.5885 66.9537 92.4248 64.6797 90.7066Z" fill="#E8A393"/>
<path d="M123.072 158.036H47.7441V171.018H123.072V158.036Z" fill="#D8ADFF"/>
<path d="M55.7427 158.036H51.958V171.018H55.7427V158.036Z" fill="#9B61D0"/>
<path d="M63.71 158.036H59.9253V171.018H63.71V158.036Z" fill="#9B61D0"/>
<path d="M71.6768 158.036H67.8921V171.018H71.6768V158.036Z" fill="#9B61D0"/>
<path d="M79.6274 158.036H75.8428V171.018H79.6274V158.036Z" fill="#9B61D0"/>
<path d="M87.5947 158.036H83.8101V171.018H87.5947V158.036Z" fill="#9B61D0"/>
<path d="M95.5615 158.036H91.7769V171.018H95.5615V158.036Z" fill="#9B61D0"/>
<path d="M103.512 158.036H99.7275V171.018H103.512V158.036Z" fill="#9B61D0"/>
<path d="M111.479 158.036H107.695V171.018H111.479V158.036Z" fill="#9B61D0"/>
<path d="M119.446 158.036H115.662V171.018H119.446V158.036Z" fill="#9B61D0"/>
<path d="M136.016 145.054H60.6885V158.036H136.016V145.054Z" fill="#D8ADFF"/>
<path d="M68.687 145.054H64.9023V158.036H68.687V145.054Z" fill="#9B61D0"/>
<path d="M76.6382 145.054H72.8535V158.036H76.6382V145.054Z" fill="#9B61D0"/>
<path d="M84.605 145.054H80.8203V158.036H84.605V145.054Z" fill="#9B61D0"/>
<path d="M92.5718 145.054H88.7871V158.036H92.5718V145.054Z" fill="#9B61D0"/>
<path d="M100.523 145.054H96.7383V158.036H100.523V145.054Z" fill="#9B61D0"/>
<path d="M108.49 145.054H104.705V158.036H108.49V145.054Z" fill="#9B61D0"/>
<path d="M116.457 145.054H112.672V158.036H116.457V145.054Z" fill="#9B61D0"/>
<path d="M124.408 145.054H120.623V158.036H124.408V145.054Z" fill="#9B61D0"/>
<path d="M132.375 145.054H128.59V158.036H132.375V145.054Z" fill="#9B61D0"/>
<path d="M129.433 132.071H54.105V145.054H129.433V132.071Z" fill="#D8ADFF"/>
<path d="M62.1035 132.071H58.3188V145.054H62.1035V132.071Z" fill="#9B61D0"/>
<path d="M70.0708 132.071H66.2861V145.054H70.0708V132.071Z" fill="#9B61D0"/>
<path d="M78.0376 132.071H74.2529V145.054H78.0376V132.071Z" fill="#9B61D0"/>
<path d="M85.9883 132.071H82.2036V145.054H85.9883V132.071Z" fill="#9B61D0"/>
<path d="M93.9556 132.071H90.1709V145.054H93.9556V132.071Z" fill="#9B61D0"/>
<path d="M101.922 132.071H98.1377V145.054H101.922V132.071Z" fill="#9B61D0"/>
<path d="M109.873 132.071H106.088V145.054H109.873V132.071Z" fill="#9B61D0"/>
<path d="M117.84 132.071H114.056V145.054H117.84V132.071Z" fill="#9B61D0"/>
<path d="M125.807 132.071H122.022V145.054H125.807V132.071Z" fill="#9B61D0"/>
<path d="M119.876 119.089H44.5479V132.071H119.876V119.089Z" fill="#D8ADFF"/>
<path d="M52.5464 119.089H48.7617V132.071H52.5464V119.089Z" fill="#9B61D0"/>
<path d="M60.5137 119.089H56.729V132.071H60.5137V119.089Z" fill="#9B61D0"/>
<path d="M68.4644 119.089H64.6797V132.071H68.4644V119.089Z" fill="#9B61D0"/>
<path d="M76.4312 119.089H72.6465V132.071H76.4312V119.089Z" fill="#9B61D0"/>
<path d="M84.3984 119.089H80.6138V132.071H84.3984V119.089Z" fill="#9B61D0"/>
<path d="M92.3491 119.089H88.5645V132.071H92.3491V119.089Z" fill="#9B61D0"/>
<path d="M100.316 119.089H96.5312V132.071H100.316V119.089Z" fill="#9B61D0"/>
<path d="M108.283 119.089H104.499V132.071H108.283V119.089Z" fill="#9B61D0"/>
<path d="M116.25 119.089H112.465V132.071H116.25V119.089Z" fill="#9B61D0"/>
<path d="M130.037 106.107H54.709V119.089H130.037V106.107Z" fill="#D8ADFF"/>
<path d="M62.6919 106.107H58.9072V119.089H62.6919V106.107Z" fill="#9B61D0"/>
<path d="M70.6587 106.107H66.874V119.089H70.6587V106.107Z" fill="#9B61D0"/>
<path d="M78.6255 106.107H74.8408V119.089H78.6255V106.107Z" fill="#9B61D0"/>
<path d="M86.5923 106.107H82.8076V119.089H86.5923V106.107Z" fill="#9B61D0"/>
<path d="M94.5435 106.107H90.7588V119.089H94.5435V106.107Z" fill="#9B61D0"/>
<path d="M102.51 106.107H98.7256V119.089H102.51V106.107Z" fill="#9B61D0"/>
<path d="M110.477 106.107H106.692V119.089H110.477V106.107Z" fill="#9B61D0"/>
<path d="M118.428 106.107H114.644V119.089H118.428V106.107Z" fill="#9B61D0"/>
<path d="M126.395 106.107H122.61V119.089H126.395V106.107Z" fill="#9B61D0"/>
<path d="M72.5513 81.5587C71.3905 81.2405 70.4364 80.8587 69.3868 80.2859C68.544 79.8245 67.7171 79.3791 66.6994 79.5223C65.9679 79.6336 60.116 82.0678 61.6744 83.1496C62.1832 83.4996 63.4395 82.8792 63.9484 82.7042C64.6639 82.4496 65.3954 82.0996 66.0792 81.7814C65.4431 81.7496 62.2786 83.086 62.6126 83.8337C63.201 85.1383 66.3973 83.3883 67.1446 82.9746C66.5722 83.0701 64.5844 83.8019 64.6003 84.5338C64.6003 85.6792 66.9538 84.7247 67.4786 84.4542C67.8602 84.2633 68.1465 83.9928 68.5599 83.9292C69.0529 83.8656 69.5299 84.0883 69.9911 84.1837C70.8021 84.3587 71.6608 84.311 72.4877 84.2315C72.9807 84.1837 74.1097 84.2951 74.3482 83.8656C74.6027 83.4201 74.4119 82.4178 74.0302 82.0837C73.6168 81.7655 73.0602 81.7019 72.5513 81.5587Z" fill="#FCD4CA"/>
<path d="M72.5513 81.5587C71.3905 81.2405 70.4364 80.8587 69.3868 80.2859C68.544 79.8245 67.7171 79.3791 66.6994 79.5223C65.9679 79.6336 60.116 82.0678 61.6744 83.1496C62.1832 83.4996 63.4395 82.8792 63.9484 82.7042C64.6639 82.4496 65.3954 82.0996 66.0792 81.7814C65.4431 81.7496 62.2786 83.086 62.6126 83.8337C63.201 85.1383 66.3973 83.3883 67.1446 82.9746C66.5722 83.0701 64.5844 83.8019 64.6003 84.5338C64.6003 85.6792 66.9538 84.7247 67.4786 84.4542C67.8602 84.2633 68.1465 83.9928 68.5599 83.9292C69.0529 83.8656 69.5299 84.0883 69.9911 84.1837C70.8021 84.3587 71.6608 84.311 72.4877 84.2315C72.9807 84.1837 74.1097 84.2951 74.3482 83.8656C74.6027 83.4201 74.4119 82.4178 74.0302 82.0837C73.6168 81.7655 73.0602 81.7019 72.5513 81.5587Z" fill="#E8A393"/>
<path d="M46.1383 55.1965L42.5444 56.6761L54.8685 86.411L58.4941 84.4382L46.1383 55.1965Z" fill="#110239"/>
<path d="M80.6297 83.9292H57.1743V87.5725H80.6297V83.9292Z" fill="#110239"/>
<path d="M122.102 66.9855C118.969 65.1877 118.444 63.2149 120.178 56.6443C121.911 50.0737 117.363 43.2644 112.99 41.4666C109.778 40.1461 106.963 39.5575 105.007 36.1369C103.051 32.7005 106.756 25.398 100.57 19.9888C96.0701 16.0432 89.598 19.1933 89.598 19.1933C88.1986 18.4296 87.6262 26.5435 87.5308 32.6527C95.3704 44.6485 93.1283 60.3353 90.2818 73.7629C90.2182 74.097 90.1069 74.3834 89.9956 74.6698C90.6157 85.0587 91.1087 93.6658 91.1087 93.6658C91.1087 93.6658 109.937 104.341 122.754 95.1931C135.555 86.061 128.383 70.5811 122.102 66.9855Z" fill="#110239"/>
<path d="M66.7153 142.81L61.9288 145.563C61.9288 145.563 56.0769 160.629 57.1423 161.949C58.2237 163.27 70.2933 149.986 70.7703 147.949C71.2633 145.913 68.1147 143.526 66.7153 142.81Z" fill="#110239"/>
<path d="M72.8057 89.8157C72.8057 89.8157 42.0831 91.9635 39.2048 94.7159C36.3425 97.4682 62.4217 145.26 62.4217 145.26L66.6994 142.794C66.6994 142.794 60.2432 120.06 58.5735 114.81C56.9037 109.544 53.6756 103.212 54.264 102.368C54.8683 101.525 85.8295 106.203 85.5909 97.4682C85.3683 88.7339 72.8057 89.8157 72.8057 89.8157Z" fill="#FCD4CA"/>
<path d="M87.9604 37.9506C87.9604 37.9506 91.1886 46.7486 89.2167 53.2874L99.9823 50.6782C99.9823 50.6782 95.5775 35.9619 93.7011 33.4482C91.8087 30.9663 87.9604 37.9506 87.9604 37.9506Z" fill="#FCD4CA"/>
<path d="M92.4445 45.8575C95.9748 45.8575 97.7876 48.4667 97.9625 51.1872L99.9821 50.694C99.9821 50.694 95.5772 35.9777 93.7008 33.464C91.8244 30.9503 87.9761 37.9505 87.9761 37.9505C87.9761 37.9505 89.4232 41.912 89.7889 46.478C90.5204 46.0962 91.4109 45.8575 92.4445 45.8575Z" fill="#E8A393"/>
<path d="M86.8472 26.4958C86.8472 26.4958 82.665 28.5004 81.6632 30.1868C80.6613 31.8732 81.5359 34.196 81.4564 35.7392C81.3769 37.2824 80.9476 39.5734 81.1861 39.9393C81.4246 40.3212 82.9512 39.9393 83.2057 40.2734C83.4601 40.6075 85.4478 41.8485 86.0839 43.2644C86.7041 44.6804 87.5469 44.8077 88.994 44.0917C90.457 43.3917 96.0226 36.0097 96.0863 32.5573C96.1499 29.1209 90.9976 25.0798 86.8472 26.4958Z" fill="#FCD4CA"/>
<path d="M90.3934 21.8025C90.3934 21.8025 88.4375 25.7003 88.2466 27.2595C88.0399 28.8027 89.5188 33.3846 90.3934 33.9892C91.268 34.5937 90.5206 28.8822 92.7469 30.6323C94.9732 32.3823 92.6197 35.6756 92.7469 36.3597C92.8741 37.0279 93.8918 39.1916 96.1817 39.3825C98.4716 39.5893 102.24 28.214 99.7438 25.3821C97.2631 22.5502 93.0172 21.8025 90.3934 21.8025Z" fill="#110239"/>
<path d="M90.775 19.5274C90.775 19.5274 87.1017 16.7751 83.2693 19.8615C79.4369 22.9639 79.5641 27.5936 76.4155 27.1958C76.4155 27.1958 78.4987 32.5732 83.0785 31.3005C87.6423 30.0118 92.3652 22.7571 90.775 19.5274Z" fill="#110239"/>
<path d="M103.306 80.3654L89.0578 79.2836C89.0578 79.2836 81.6474 87.5724 74.3166 87.5724C67.0812 87.5724 49.271 87.5724 49.271 87.5724C49.271 87.5724 50.5273 97.9932 56.57 106.282C56.57 106.282 80.4548 108.032 92.0473 107.078C103.64 106.123 114.66 93.3158 103.306 80.3654Z" fill="#F45762"/>
<path opacity="0.35" d="M104.626 82.0359C104.212 81.4791 103.783 80.9223 103.29 80.3654L89.0418 79.2836C89.0418 79.2836 81.8223 87.3338 74.5869 87.5565C83.333 88.4315 100.014 90.3725 104.626 82.0359Z" fill="#C9071E"/>
<path opacity="0.35" d="M55.8699 89.2429C59.4955 88.8929 63.0258 88.0179 66.6037 87.5724H50.8926C52.451 88.3679 53.2143 89.5133 55.8699 89.2429Z" fill="#C9071E"/>
<path d="M98.6148 45.7303C98.6148 45.7303 92.0791 48.3077 89.8529 48.5463C89.8529 48.5463 85.2413 58.7125 83.4444 61.4649C81.6474 64.2172 87.9923 74.7493 88.3422 79.2835C88.3422 79.2835 92.1586 82.9268 103.703 80.6836C103.719 80.6836 106.725 52.126 98.6148 45.7303Z" fill="#FD7529" fill-opacity="0.97"/>
<path opacity="0.65" d="M100.364 51.8078C98.3602 50.885 94.8777 51.8237 93.9076 53.8442C92.6991 56.3261 93.9394 60.7489 93.7963 63.4376C93.6373 66.2695 93.4624 70.0242 92.7468 72.7765C92.1902 74.9243 90.7909 77.5812 88.978 79.7449C90.4569 80.6358 94.7504 82.4336 103.703 80.6995C103.703 80.6995 105.548 63.2785 102.479 52.6032C101.668 52.3169 100.889 52.0464 100.364 51.8078Z" fill="#FD7529" fill-opacity="0.97"/>
<path d="M74.7774 81.5587C73.6166 81.2405 72.6624 80.8587 71.6129 80.2859C70.7701 79.8245 69.9432 79.3791 68.9255 79.5223C68.194 79.6336 62.342 82.0678 63.9004 83.1496C64.4093 83.4996 65.6656 82.8792 66.1744 82.7042C66.89 82.4496 67.6215 82.0996 68.3053 81.7814C67.6692 81.7496 64.5047 83.086 64.8387 83.8337C65.427 85.1383 68.6233 83.3883 69.3707 82.9746C68.7983 83.0701 66.8105 83.8019 66.8264 84.5338C66.8264 85.6792 69.1799 84.7247 69.7047 84.4542C70.0863 84.2633 70.3725 83.9928 70.786 83.9292C71.279 83.8656 71.756 84.0883 72.2172 84.1837C73.0282 84.3587 73.8869 84.311 74.7138 84.2315C75.2068 84.1837 76.3358 84.2951 76.5743 83.8656C76.8288 83.4201 76.6379 82.4178 76.2563 82.0837C75.8587 81.7655 75.3022 81.7019 74.7774 81.5587Z" fill="#FCD4CA"/>
<path d="M73.7915 81.4154L75.0478 86.1405C75.0478 86.1405 105.898 82.545 106.613 77.0721C107.329 71.5992 105.357 46.128 97.9148 48.769C90.4727 51.41 97.8194 69.8969 96.6586 71.3287C95.4977 72.7606 73.7915 81.4154 73.7915 81.4154Z" fill="#FD7529" fill-opacity="0.97"/>
</g>
<defs>
<linearGradient id="paint0_linear_180_29372" x1="82" y1="0" x2="82" y2="164" gradientUnits="userSpaceOnUse">
<stop stop-color="#FE9333"/>
<stop offset="1" stop-color="#FF3CA7"/>
</linearGradient>
<linearGradient id="paint1_linear_180_29372" x1="82" y1="0" x2="82" y2="164" gradientUnits="userSpaceOnUse">
<stop stop-color="#FE9333"/>
<stop offset="1" stop-color="#FF3CA7"/>
</linearGradient>
</defs>
</svg>
