<svg width="164" height="164" viewBox="0 0 164 164" fill="none" xmlns="http://www.w3.org/2000/svg">
<mask id="mask0_180_29369" style="mask-type:alpha" maskUnits="userSpaceOnUse" x="0" y="0" width="164" height="164">
<circle cx="82" cy="82" r="82" fill="url(#paint0_linear_180_29369)"/>
<circle cx="82" cy="82" r="82" fill="url(#paint1_linear_180_29369)"/>
</mask>
<g mask="url(#mask0_180_29369)">
<path d="M107.744 80.5567C108.618 80.0727 109.445 79.5886 109.96 78.7611C110.194 78.3708 110.413 77.9805 110.787 77.715C111.162 77.434 111.505 76.9812 111.849 76.5909C112.161 76.2318 112.489 75.7477 113.004 75.5916C113.613 75.4043 113.425 76.2005 113.238 76.7158C113.019 77.2779 111.474 78.2927 111.677 78.886C111.88 79.4794 113.691 78.121 114.05 77.8399C114.893 77.1842 114.799 76.3879 115.189 75.5135C115.423 74.9983 115.689 74.8422 116.016 75.4043C116.25 75.8258 116.048 76.3567 115.891 76.7782C115.595 77.637 115.064 78.5269 114.362 79.1359C114.955 78.7299 115.673 77.7307 116.016 77.0749C116.25 76.6377 116.922 74.5611 117.655 74.8734C119.123 75.4979 116.266 79.495 115.47 79.9165C116.219 79.4169 116.734 78.6831 117.265 77.9492C117.577 77.5277 118.28 76.4972 118.607 77.3715C119.107 78.6675 116.672 80.1976 115.72 81.0719C116.531 80.7128 117.031 80.1976 117.78 79.6043C118.654 78.9017 118.873 79.7916 118.092 80.666C117.765 81.0251 117 81.6496 116.828 81.7745C115.017 83.1485 113.8 83.4295 111.615 83.6325C110.834 83.7106 109.476 84.663 108.93 84.2727C107.853 83.5232 107.931 81.6496 107.744 80.5567Z" fill="#E8A393"/>
<path d="M108.836 78.3551C108.836 78.3551 92.072 83.0235 90.3863 82.9143C88.6849 82.805 84.7671 68.0503 83.1906 60.7744C83.0501 60.1031 80.818 60.0562 78.2894 57.9328C77.2436 57.0584 74.1687 58.7291 73.1385 57.9328C71.1562 60.025 70.6099 63.054 71.8117 65.7083C75.6359 74.1395 78.9138 90.3462 87.7015 90.5024C99.3145 90.721 111.099 84.6473 111.099 84.6473L108.836 78.3551Z" fill="#FD7529" fill-opacity="0.97"/>
<path d="M112.442 80.3693C112.442 80.3693 111.771 79.2295 111.662 78.886C111.459 78.2927 113.02 77.2622 113.222 76.7158C113.425 76.2005 113.597 75.4198 112.988 75.5916C112.473 75.7477 112.145 76.2317 111.833 76.5909C111.505 76.9812 111.162 77.434 110.772 77.715C110.397 77.9804 110.194 78.3708 109.945 78.7611C109.757 79.0734 109.508 79.3388 109.242 79.5574C109.882 80.1195 112.442 80.3693 112.442 80.3693Z" fill="#E8A393"/>
<path d="M115.782 152.769H41.8433V165.509H115.782V152.769Z" fill="#9B61D0"/>
<path d="M49.6949 152.769H45.98V165.509H49.6949V152.769Z" fill="#D8ADFF"/>
<path d="M57.4991 152.769H53.7842V165.509H57.4991V152.769Z" fill="#D8ADFF"/>
<path d="M65.3189 152.769H61.604V165.509H65.3189V152.769Z" fill="#D8ADFF"/>
<path d="M73.1392 152.769H69.4243V165.509H73.1392V152.769Z" fill="#D8ADFF"/>
<path d="M80.9434 152.769H77.2285V165.509H80.9434V152.769Z" fill="#D8ADFF"/>
<path d="M88.7637 152.769H85.0488V165.509H88.7637V152.769Z" fill="#D8ADFF"/>
<path d="M96.5836 152.769H92.8687V165.509H96.5836V152.769Z" fill="#D8ADFF"/>
<path d="M104.388 152.769H100.673V165.509H104.388V152.769Z" fill="#D8ADFF"/>
<path d="M112.208 152.769H108.493V165.509H112.208V152.769Z" fill="#D8ADFF"/>
<path d="M109.32 140.028H35.3809V152.769H109.32V140.028Z" fill="#9B61D0"/>
<path d="M43.232 140.028H39.5171V152.769H43.232V140.028Z" fill="#D8ADFF"/>
<path d="M51.0523 140.028H47.3374V152.769H51.0523V140.028Z" fill="#D8ADFF"/>
<path d="M58.8721 140.028H55.1572V152.769H58.8721V140.028Z" fill="#D8ADFF"/>
<path d="M66.6768 140.028H62.9619V152.769H66.6768V140.028Z" fill="#D8ADFF"/>
<path d="M74.4966 140.028H70.7817V152.769H74.4966V140.028Z" fill="#D8ADFF"/>
<path d="M82.3165 140.028H78.6016V152.769H82.3165V140.028Z" fill="#D8ADFF"/>
<path d="M90.1212 140.028H86.4062V152.769H90.1212V140.028Z" fill="#D8ADFF"/>
<path d="M97.941 140.028H94.2261V152.769H97.941V140.028Z" fill="#D8ADFF"/>
<path d="M105.761 140.028H102.046V152.769H105.761V140.028Z" fill="#D8ADFF"/>
<path d="M99.9391 127.288H26V140.028H99.9391V127.288Z" fill="#9B61D0"/>
<path d="M33.8511 127.288H30.1362V140.028H33.8511V127.288Z" fill="#D8ADFF"/>
<path d="M41.6714 127.288H37.9565V140.028H41.6714V127.288Z" fill="#D8ADFF"/>
<path d="M49.4756 127.288H45.7607V140.028H49.4756V127.288Z" fill="#D8ADFF"/>
<path d="M57.296 127.288H53.5811V140.028H57.296V127.288Z" fill="#D8ADFF"/>
<path d="M65.1158 127.288H61.4009V140.028H65.1158V127.288Z" fill="#D8ADFF"/>
<path d="M72.9205 127.288H69.2056V140.028H72.9205V127.288Z" fill="#D8ADFF"/>
<path d="M80.7403 127.288H77.0254V140.028H80.7403V127.288Z" fill="#D8ADFF"/>
<path d="M88.5601 127.288H84.8452V140.028H88.5601V127.288Z" fill="#D8ADFF"/>
<path d="M96.3648 127.288H92.6499V140.028H96.3648V127.288Z" fill="#D8ADFF"/>
<path d="M109.898 114.547H35.9585V127.288H109.898V114.547Z" fill="#9B61D0"/>
<path d="M43.8096 114.547H40.0947V127.288H43.8096V114.547Z" fill="#D8ADFF"/>
<path d="M51.6299 114.547H47.915V127.288H51.6299V114.547Z" fill="#D8ADFF"/>
<path d="M59.4498 114.547H55.7349V127.288H59.4498V114.547Z" fill="#D8ADFF"/>
<path d="M67.2545 114.547H63.5396V127.288H67.2545V114.547Z" fill="#D8ADFF"/>
<path d="M75.0743 114.547H71.3594V127.288H75.0743V114.547Z" fill="#D8ADFF"/>
<path d="M82.8941 114.547H79.1792V127.288H82.8941V114.547Z" fill="#D8ADFF"/>
<path d="M90.6988 114.547H86.9839V127.288H90.6988V114.547Z" fill="#D8ADFF"/>
<path d="M98.5186 114.547H94.8037V127.288H98.5186V114.547Z" fill="#D8ADFF"/>
<path d="M106.338 114.547H102.624V127.288H106.338V114.547Z" fill="#D8ADFF"/>
<path d="M116.734 131.691C116.734 131.691 118.295 138.904 119.731 139.591C121.183 140.262 136.339 136.531 137.229 134.829C138.103 133.111 136.87 131.332 133.623 131.456C130.704 131.566 128.8 132.643 126.443 132.3C124.367 131.987 122.338 128.053 122.338 128.053L116.734 131.691Z" fill="#110239"/>
<path d="M90.9638 148.1C90.9638 148.1 87.0772 154.377 87.6547 155.86C88.2322 157.343 101.734 165.197 103.56 164.572C105.371 163.948 105.73 161.793 103.31 159.639C101.141 157.703 99.018 157.141 97.5507 155.251C96.2708 153.596 97.5507 149.349 97.5507 149.349L90.9638 148.1Z" fill="#110239"/>
<path d="M68.2531 94.8586C68.2531 94.8586 74.3717 98.0437 77.2282 97.669C80.0846 97.2943 104.497 99.2147 107.353 101.572C110.21 103.93 98.5342 151.02 98.5342 151.02L88.8568 149.412C88.8568 149.412 92.3219 114.984 91.7444 114.734C91.1669 114.485 76.557 114.547 51.6453 114.547C45.5734 114.547 38.7836 101.76 46.4787 92.8289L68.2531 94.8586Z" fill="#0186CB"/>
<path opacity="0.65" d="M103.139 105.398C101.921 103.383 101.078 101.073 100.423 98.7931C91.9628 97.747 79.226 97.4035 77.228 97.669C74.3716 98.0437 68.2529 94.8585 68.2529 94.8585L66.8481 94.7336C68.5963 97.2474 70.6567 99.4333 73.2322 99.9954C76.3071 100.682 79.5381 100.854 82.5819 101.65C87.842 103.04 93.0554 105.804 95.3967 111.05C98.2219 117.357 101.234 123.962 103.186 130.988C104.778 123.853 106.401 116.358 107.353 110.425C105.496 109.52 104.153 107.084 103.139 105.398Z" fill="#0056A3"/>
<path d="M70.7818 89.6124C70.7818 89.6124 99.8455 91.3455 102.624 94.0779C105.387 96.8102 124.102 129.005 124.102 129.005L116.391 134.563C116.391 134.563 101.063 111.955 93.68 103.149C92.0098 101.151 89.6841 99.808 87.1087 99.3864C83.9557 98.8556 79.3667 98.1686 75.9327 97.9812C70.1575 97.6689 67.5508 94.7961 67.5508 94.7961L70.7818 89.6124Z" fill="#0186CB"/>
<path d="M78.2583 44.7083C77.353 44.193 76.5882 43.506 75.8546 42.7722C75.1365 45.567 73.4664 50.6882 70.251 53.0927C70.251 53.0927 75.9638 56.2778 81.0055 55.7626C81.0055 55.7626 81.2084 49.0176 82.6132 45.8793C81.0835 45.7856 79.5851 45.4577 78.2583 44.7083Z" fill="#FCD4CA"/>
<path d="M74.3717 52.4838C75.6516 49.6421 78.8358 48.1745 81.8171 48.4867C82.02 47.5031 82.2854 46.5975 82.5976 45.8793C81.0835 45.8012 79.5851 45.4733 78.2583 44.7239C77.353 44.2087 76.5882 43.5217 75.8546 42.7878C75.1365 45.5826 73.4664 50.7038 70.251 53.1083C70.251 53.1083 71.6558 53.889 73.6693 54.6072C73.7942 53.889 74.0439 53.202 74.3717 52.4838Z" fill="#E8A393"/>
<path d="M83.144 27.3462C83.144 27.3462 90.6051 27.8146 92.2128 29.938C93.8205 32.0614 93.8673 36.8235 92.5718 39.1031C91.2763 41.3826 92.9776 45.2548 92.7123 46.1604C92.4937 46.8786 90.1368 46.5507 89.9651 46.8005C89.7934 47.0347 87.9672 51.4065 84.7674 51.0161C80.2564 50.4853 76.042 45.0674 75.1055 41.8667C74.169 38.6503 76.3074 26.4406 83.144 27.3462Z" fill="#FCD4CA"/>
<path d="M95.428 32.405C95.2095 31.921 94.5227 30.9998 94.4759 30.469C94.4291 30.0162 94.5227 29.5478 94.4135 29.1262C94.1013 27.7522 94.2262 26.8779 91.5571 24.7701C89.2313 22.9277 85.4852 22.5842 82.7381 23.4586C81.7235 23.7864 80.7557 24.2704 79.9441 24.9574C79.6943 25.1604 78.9607 25.7069 78.9763 26.0192C78.9763 26.4095 79.8816 27.034 80.1158 27.3307C80.5372 27.8615 80.8026 28.5329 81.146 29.1262C83.2375 32.7641 86.9681 37.2296 91.6351 35.0905C92.2438 34.8095 92.8682 34.4972 93.4457 34.1225C93.5394 35.7151 93.3833 37.4482 92.6653 38.9002C92.6653 38.9002 94.0701 38.4943 94.8505 37.2764C96.1461 35.2155 95.9431 33.5604 95.428 32.405Z" fill="#110239"/>
<path d="M81.4272 26.784C80.7872 26.0346 79.2264 25.5974 78.321 25.4569C76.4324 25.1602 74.9964 26.0814 74.0286 27.6584C73.4511 28.6108 72.9048 29.61 72.5145 30.6717C71.8278 32.5297 71.4688 33.7164 71.4688 35.6993C71.4688 37.5729 71.7029 39.4933 72.5458 41.1796C73.3106 42.6941 75.1524 44.8175 76.4948 44.8019C77.0099 44.7863 78.8986 41.8197 79.1015 40.9454C79.2888 40.1023 78.8986 39.9305 78.4147 39.3372C77.5874 38.3223 76.8538 36.6829 78.1181 35.6993C79.9287 34.2941 81.6613 35.9179 81.4272 38.7439C81.4272 38.7439 81.6925 40.477 82.2232 40.4301C82.7852 40.3677 87.5927 33.9662 81.4272 26.784Z" fill="#110239"/>
<path d="M78.7734 36.2458C78.7734 36.2458 80.0846 36.199 80.5528 37.5261C80.9899 38.7596 80.0377 40.1023 79.4758 39.2436C78.9139 38.3848 79.4134 38.0101 79.4446 37.4949C79.4758 36.9796 79.0544 36.4019 78.7734 36.2458Z" fill="#E8A393"/>
<path d="M41.6714 95.5143C41.6714 95.5143 50.3499 104.867 73.2169 98.4184C73.2169 98.4184 73.9973 92.7039 76.4167 87.083C78.836 81.4622 82.7851 70.4079 83.5499 64.4124C84.424 57.6518 81.0681 54.17 81.0681 54.17C81.0681 54.17 76.7445 57.3707 71.4999 51.9216C71.4999 51.9216 60.1835 53.2488 53.5809 65.1618C46.9628 77.0748 41.6714 95.5143 41.6714 95.5143Z" fill="#FD7529" fill-opacity="0.97"/>
<path d="M73.0919 61.6332C73.0138 61.3521 72.9514 61.0555 72.8889 60.7744C67.4102 63.4443 68.097 68.7373 69.4238 76.7157C70.4383 82.8518 73.3728 92.5321 73.9659 94.7024C74.4654 92.5946 75.2459 89.831 76.4321 87.0986C77.556 84.5068 78.992 80.744 80.3031 76.8718C78.3052 73.9521 76.9785 70.8295 75.7766 67.4257C75.0586 65.4116 73.6538 63.6941 73.0919 61.6332Z" fill="#FD7529" fill-opacity="0.97"/>
<path d="M110.475 74.9358L129.69 63.4756C129.69 63.4756 136.698 70.3455 138.68 79.7135L116.859 89.9403C116.875 89.9403 113.472 81.9306 110.475 74.9358Z" fill="#D2CFCF"/>
<path d="M125.335 82.118C120.855 80.7909 116.141 77.2779 113.862 72.9061L110.475 74.9359C113.472 81.9307 116.875 89.9404 116.875 89.9404L132.796 82.4772C130.392 82.8831 128.019 82.9143 125.335 82.118Z" fill="#B2B2B2"/>
<path d="M113.894 76.0756L122.104 75.1856L122.354 75.1544L122.478 75.3574L123.633 77.1217L123.321 76.95H129.143H129.456L129.518 77.2466L130.017 79.5418L129.58 79.2451L133.81 78.5894L133.935 79.3388L129.705 79.9946L129.346 80.057L129.268 79.6979L128.769 77.4027L129.143 77.715H123.321H123.103L122.994 77.5277L121.838 75.779L122.229 75.9507L114.143 77.637L113.894 76.0756Z" fill="#F45762"/>
<path d="M133.405 79.0422L132.671 78.1834L132.703 78.1522L134.357 78.5269C134.919 78.5582 135.481 78.5894 136.043 78.6362C135.512 78.8392 134.997 79.0422 134.466 79.2452L133.015 80.1039L132.984 80.0883L133.405 79.0422Z" fill="#F45762"/>
<path d="M131.016 68.4875C130.923 68.3313 130.72 68.2845 130.548 68.3782L129.034 69.1589L128.316 67.8473C128.238 67.6912 128.019 67.66 127.832 67.738C127.645 67.8317 127.567 68.0347 127.645 68.1752L128.347 69.5024L126.693 70.3611C126.49 70.4704 126.38 70.7046 126.458 70.8763C126.521 71.0012 126.661 71.0793 126.817 71.0637C126.88 71.0637 126.927 71.0325 126.989 71.0169L128.675 70.1113L129.44 71.5789C129.502 71.7038 129.643 71.7663 129.799 71.7507C129.861 71.7507 129.908 71.7195 129.97 71.6882C130.158 71.5789 130.236 71.3291 130.142 71.1574L129.362 69.7366L130.876 68.9247C131.032 68.831 131.11 68.628 131.016 68.4875Z" fill="#FD7529" fill-opacity="0.97"/>
<path d="M110.413 86.7553C111.412 86.8021 112.364 86.849 113.253 86.3962C113.659 86.1932 114.049 85.9746 114.502 85.9434C114.97 85.9122 115.501 85.7092 115.985 85.553C116.438 85.4125 116.968 85.1783 117.483 85.3188C118.092 85.4906 117.53 86.0527 117.093 86.3962C116.625 86.7553 114.752 86.7865 114.611 87.411C114.471 88.02 116.734 87.8326 117.171 87.7858C118.233 87.6765 118.576 86.9583 119.372 86.4274C119.84 86.1151 120.153 86.1151 120.121 86.7709C120.106 87.2549 119.637 87.5828 119.294 87.8638C118.592 88.4259 117.655 88.9099 116.75 89.0505C117.483 89.0192 118.607 88.5508 119.247 88.1761C119.684 87.9263 121.354 86.5211 121.807 87.1768C122.728 88.4884 118.186 90.362 117.28 90.2995C118.186 90.2683 119.013 89.9092 119.84 89.5813C120.324 89.3939 121.464 88.8787 121.292 89.8155C121.027 91.1895 118.155 91.1895 116.875 91.4237C117.749 91.5486 118.451 91.3768 119.403 91.2676C120.512 91.1426 120.215 92.0014 119.107 92.3293C118.638 92.4698 117.655 92.5791 117.437 92.5947C115.173 92.8133 113.987 92.3917 112.036 91.4081C111.334 91.0646 109.679 91.1583 109.429 90.5337C108.93 89.3315 109.991 87.7858 110.413 86.7553Z" fill="#FCD4CA"/>
<path d="M110.865 86.0058L111.427 92.4541C111.427 92.4541 83.7056 94.6868 80.5214 92.6571C77.3372 90.6274 75.8231 87.3329 74.8242 84.382C72.8262 78.4801 64.9126 62.1797 72.0458 59.6972C74.2779 58.9165 77.2436 58.9321 78.742 61.8518C82.0823 68.3782 85.6723 82.9612 86.6089 83.5857C87.92 84.4601 110.865 86.0058 110.865 86.0058Z" fill="#FD7529" fill-opacity="0.97"/>
</g>
<defs>
<linearGradient id="paint0_linear_180_29369" x1="82" y1="0" x2="82" y2="164" gradientUnits="userSpaceOnUse">
<stop stop-color="#FE9333"/>
<stop offset="1" stop-color="#FF3CA7"/>
</linearGradient>
<linearGradient id="paint1_linear_180_29369" x1="82" y1="0" x2="82" y2="164" gradientUnits="userSpaceOnUse">
<stop stop-color="#FE9333"/>
<stop offset="1" stop-color="#FF3CA7"/>
</linearGradient>
</defs>
</svg>
