<svg width="18" height="22" viewBox="0 0 18 22" fill="none" xmlns="http://www.w3.org/2000/svg">
<path d="M13.0999 15.9484C12.7083 15.7387 11.7444 15.184 11.3302 14.7878L11.3373 13.7188C12.6792 12.9634 13.6025 11.5982 13.9057 9.92163C14.6645 9.70984 15.3283 9.00352 15.3327 8.34973C15.3371 7.68789 14.8426 7.24543 14.0209 7.14897L14.0472 3.19849L14.0083 3.12498C13.9916 3.09359 13.5916 2.34792 12.7658 1.59762C11.6676 0.599695 10.3303 0.0672335 8.89867 0.0576878C7.46699 0.0481421 6.12276 0.562725 5.01134 1.54592C4.1756 2.28519 3.76569 3.0254 3.74863 3.05657L3.70873 3.12956L3.68239 7.07999C2.85945 7.16549 2.35905 7.60136 2.35464 8.26315C2.35028 8.91694 3.00465 9.63209 3.76051 9.85399C4.04169 11.535 4.94682 12.9124 6.27807 13.685L6.27095 14.754C5.85126 15.1449 4.87913 15.6871 4.4852 15.8913C0.187352 17.254 0.0797889 19.7937 0.0773111 19.9013L0.0676977 21.3366L17.4451 21.4525L17.4547 20.0209C17.4548 19.9125 17.4084 17.3558 13.0999 15.9484ZM14.0164 7.81222C14.6039 7.89858 14.6738 8.20314 14.6728 8.34533C14.671 8.61483 14.377 8.9798 13.9956 9.17981C14.0037 9.04946 14.0164 7.81222 14.0164 7.81222ZM3.01454 8.2676C3.01549 8.12541 3.08935 7.82181 3.67796 7.74328C3.67796 7.74328 3.67416 8.98063 3.68055 9.11103C3.30184 8.90595 3.01274 8.5371 3.01454 8.2676ZM4.36748 3.3061C4.48326 3.11783 4.8491 2.56623 5.46623 2.02467C6.46426 1.14882 7.61762 0.709078 8.89427 0.71759C10.1709 0.726102 11.3183 1.18119 12.3046 2.07027C12.9147 2.62023 13.2732 3.17696 13.3861 3.36628L13.3656 6.44934C11.412 6.24098 8.80207 4.42359 8.62976 4.3022C8.5395 4.22698 7.70462 3.52427 7.16126 2.81364L6.63702 3.2145C7.03894 3.74011 7.57063 4.24701 7.9041 4.54607C6.6357 5.43266 5.05384 5.78943 4.35011 5.91148L4.36748 3.3061ZM4.37992 9.53744C4.3458 9.28234 4.32948 9.00612 4.33141 8.71633L4.34461 6.73663L4.34563 6.5826C5.0658 6.46959 6.95394 6.08226 8.44011 4.97319C9.1396 5.44658 11.4717 6.93641 13.3612 7.11202L13.3501 8.77646C13.3481 9.06625 13.3281 9.34223 13.2905 9.59764C13.0526 11.2391 12.1664 12.562 10.8583 13.2275C10.2419 13.5431 9.55202 13.7006 8.80774 13.6957C8.06346 13.6907 7.37573 13.524 6.76284 13.1998C5.46451 12.5173 4.59601 11.1828 4.37992 9.53744ZM10.6753 14.0292L10.6702 14.7909C10.4539 15.0141 9.79106 15.6191 8.92629 15.6713L8.6629 15.6695C7.80405 15.6054 7.1451 14.9907 6.9308 14.7652L6.93588 14.0042C7.5143 14.2328 8.14009 14.3511 8.80334 14.3556C9.46672 14.36 10.0942 14.25 10.6753 14.0292ZM0.732 20.6811L0.737092 19.9173C0.739462 19.8786 0.780657 19.3484 1.25484 18.6882C2.08975 17.5257 3.5949 16.8632 4.71054 16.5122C4.71054 16.5122 5.96696 15.8658 6.58573 15.3544C6.87265 15.6282 7.39943 16.0474 8.08824 16.2365L6.34621 17.9554L6.80974 18.4252L8.78918 16.4719L10.7424 18.4514L11.2122 17.9879L9.49321 16.2459C10.1845 16.0659 10.7168 15.6538 11.0073 15.3839C11.6192 15.9035 12.8684 16.567 12.8684 16.567C13.986 16.9292 15.4889 17.6077 16.3027 18.7825C16.7698 19.4567 16.7937 19.9938 16.7946 20.0218L16.7895 20.7882L0.732 20.6811Z" fill="#FD7529"/>
<path d="M9.22215 17.8779L8.34229 17.8721L8.33789 18.532L9.21775 18.5378L9.22215 17.8779Z" fill="#FD7529"/>
<path d="M9.21336 19.198L8.3335 19.1921L8.3291 19.852L9.20896 19.8579L9.21336 19.198Z" fill="#FD7529"/>
<path d="M8.83189 10.3961L9.71176 10.402L9.71616 9.74205L9.16624 9.73839L9.17577 8.3086L8.51587 8.3042L8.50414 10.0639C8.50292 10.2462 8.64962 10.3949 8.83189 10.3961Z" fill="#FD7529"/>
</svg>
