<?xml version="1.0" encoding="UTF-8"?>
<svg id="Layer_2" data-name="Layer 2" xmlns="http://www.w3.org/2000/svg" viewBox="0 0 90.58 63.99">
  <defs>
    <style>
      .cls-1 {
        fill: #ffffff;
      }

      .cls-2 {
        fill: #ffffff;
      }

      .cls-3 {
        fill: #ffffff;
      }
    </style>
  </defs>
  <g id="Layer_1-2" data-name="Layer 1">
    <g>
      <g>
        <path class="cls-2" d="m15.05,63.95l-1.17-3.84-1.18,3.84h-.86l-1.63-4.92h.89l1.2,4,1.19-3.99h.81s1.2,3.99,1.2,3.99l1.19-4h.86l-1.65,4.92h-.85Z"/>
        <path class="cls-2" d="m18.78,59.77v1.33h2.41v.75h-2.41v1.36h2.77v.75h-3.6v-4.92h3.52v.75h-2.69Z"/>
        <path class="cls-2" d="m28.47,63.95v-3.68s-1.56,3.17-1.56,3.17h-.54l-1.55-3.17v3.68h-.78v-4.92h.98l1.62,3.27,1.62-3.27h.98v4.92h-.77Z"/>
        <path class="cls-2" d="m31.06,62.84l-.47,1.11h-.87l2.17-4.92h.85l2.15,4.92h-.89l-.47-1.11h-2.48Zm1.24-2.93l-.93,2.19h1.86l-.93-2.19Z"/>
        <path class="cls-2" d="m37.05,61.78l-.84.92v1.25h-.83v-4.92h.83v2.55l2.35-2.55h.98l-1.91,2.1,2.03,2.82h-1l-1.62-2.17Z"/>
        <path class="cls-2" d="m41.09,59.77v1.33h2.41v.75h-2.41v1.36h2.77v.75h-3.6v-4.92h3.52v.75h-2.69Z"/>
        <path class="cls-2" d="m46.11,60.76v-1.73h.62v1.73h-.62Zm1.08,0v-1.73h.62v1.73h-.62Z"/>
        <path class="cls-2" d="m48.71,63.95v-4.92h.83v4.92h-.83Z"/>
        <path class="cls-2" d="m52.46,59.77v4.18h-.83v-4.18h-1.55v-.75h3.95v.75h-1.56Z"/>
        <path class="cls-2" d="m54.33,60.76v-1.73h.62v1.73h-.62Zm1.08,0v-1.73h.62v1.73h-.62Z"/>
        <path class="cls-2" d="m62.78,63.95l-1.17-3.84-1.18,3.84h-.86l-1.63-4.92h.89l1.2,4,1.19-3.99h.82s1.2,3.99,1.2,3.99l1.19-4h.86l-1.65,4.92h-.85Z"/>
        <path class="cls-2" d="m70.46,61.49c0,1.41-1.14,2.5-2.61,2.5s-2.61-1.09-2.61-2.5,1.14-2.48,2.61-2.48,2.61,1.08,2.61,2.48Zm-4.37,0c0,.98.81,1.75,1.77,1.75s1.75-.77,1.75-1.75-.79-1.74-1.75-1.74-1.77.76-1.77,1.74Z"/>
        <path class="cls-2" d="m73.4,62.46c-.07,0-.15,0-.23,0h-1.17v1.48h-.83v-4.92h2c1.26,0,1.98.61,1.98,1.68,0,.79-.37,1.34-1.02,1.6l1.1,1.65h-.94l-.9-1.49Zm-.23-.74c.76,0,1.2-.32,1.2-.99s-.44-.96-1.2-.96h-1.17v1.95h1.17Z"/>
        <path class="cls-2" d="m77.76,61.78l-.84.92v1.25h-.83v-4.92h.83v2.55l2.35-2.55h.98l-1.91,2.1,2.03,2.82h-1l-1.62-2.17Z"/>
      </g>
      <g>
        <path class="cls-2" d="m8.37,53.37v-6.4l-2.52,5.43h-1.4l-2.52-5.43v6.4H0v-9.48h2.4l2.76,5.8,2.75-5.8h2.39v9.48h-1.92Z"/>
        <path class="cls-2" d="m15.55,54.18c-.52,1.29-1.41,1.91-2.67,1.91-.77,0-1.38-.22-1.98-.7l.88-1.5c.33.27.61.39.95.39.43,0,.76-.22.96-.65l.2-.41-3.02-7.14h2.15l1.91,5.01,1.72-5.01h2.09l-3.2,8.1Z"/>
        <path class="cls-2" d="m26.37,45.7v7.67h-2.14v-7.67h-2.89v-1.82h7.93v1.82h-2.9Z"/>
        <path class="cls-2" d="m35.86,50.36h-5.23c.24.92.95,1.46,1.88,1.46.69,0,1.34-.27,1.84-.77l1.1,1.11c-.73.81-1.8,1.29-3.12,1.29-2.33,0-3.81-1.49-3.81-3.7s1.53-3.74,3.75-3.74c2.56,0,3.75,1.69,3.58,4.35Zm-1.95-1.23c-.03-.96-.65-1.59-1.61-1.59s-1.54.62-1.71,1.59h3.32Z"/>
        <path class="cls-2" d="m43.17,47.54l-1.41,1.02c-.39-.49-.95-.79-1.67-.77-1.02,0-1.73.79-1.73,1.95s.72,1.98,1.73,1.98c.74,0,1.33-.29,1.69-.85l1.44.98c-.61,1.02-1.75,1.61-3.24,1.61-2.21,0-3.71-1.49-3.71-3.7s1.5-3.74,3.74-3.74c1.4,0,2.51.56,3.16,1.53Z"/>
        <path class="cls-2" d="m51.54,48.79v4.58h-2.09v-3.97c0-.92-.54-1.49-1.44-1.49-1.04.01-1.68.8-1.68,1.87v3.59h-2.09v-10.05h2.09v4.05c.52-.91,1.38-1.36,2.52-1.37,1.64,0,2.68,1.08,2.68,2.79Z"/>
        <path class="cls-2" d="m60.05,45.7v7.67h-2.14v-7.67h-2.89v-1.82h7.93v1.82h-2.9Z"/>
        <path class="cls-2" d="m69.53,50.36h-5.23c.24.92.95,1.46,1.88,1.46.69,0,1.34-.27,1.84-.77l1.1,1.11c-.73.81-1.8,1.29-3.12,1.29-2.33,0-3.81-1.49-3.81-3.7s1.53-3.74,3.75-3.74c2.56,0,3.75,1.69,3.58,4.35Zm-1.95-1.23c-.03-.96-.65-1.59-1.61-1.59s-1.54.62-1.71,1.59h3.32Z"/>
        <path class="cls-2" d="m74.8,52.52c-.49.61-1.27.95-2.29.95-1.56,0-2.51-.95-2.51-2.28s.99-2.18,2.78-2.19h2.01v-.14c0-.77-.52-1.22-1.52-1.22-.65,0-1.41.22-2.17.64l-.65-1.44c1.08-.54,2.02-.84,3.29-.84,1.95,0,3.08.98,3.09,2.62v4.76s-2.03,0-2.03,0v-.85Zm-.01-1.64v-.65h-1.64c-.8,0-1.19.24-1.19.83s.43.92,1.14.92c.88,0,1.57-.47,1.69-1.1Z"/>
        <path class="cls-2" d="m90.58,48.79v4.58h-2.07v-3.97c0-.94-.54-1.49-1.41-1.49-1,.01-1.61.8-1.61,1.86v3.6h-2.07v-3.97c0-.94-.54-1.49-1.4-1.49-1.02.01-1.63.8-1.63,1.86v3.6h-2.09v-7.29h2.09v1.26c.51-.89,1.37-1.33,2.47-1.34,1.23,0,2.11.62,2.47,1.68.47-1.12,1.4-1.67,2.63-1.68,1.61,0,2.63,1.08,2.63,2.79Z"/>
      </g>
      <g>
        <rect class="cls-2" x="33.36" y="10.7" width="2" height="4.82"/>
        <circle class="cls-3" cx="48.19" cy="3.63" r="3.63"/>
        <circle class="cls-1" cx="40.02" cy="3.63" r="3.63"/>
      </g>
      <polygon class="cls-2" points="42.86 10.7 40.47 10.7 37.18 10.7 37.18 30.86 42.86 30.86 42.86 15.52 45.5 15.52 45.5 30.86 51.18 30.86 51.18 15.52 58.87 15.52 58.87 10.7 42.86 10.7"/>
    </g>
  </g>
</svg>